<?xml version="1.0" encoding="iso-8859-1"?>
<!-- Generator: Adobe Illustrator 19.0.0, SVG Export Plug-In . SVG Version: 6.00 Build 0)  -->
<svg version="1.1" id="Layer_1" xmlns="http://www.w3.org/2000/svg" xmlns:xlink="http://www.w3.org/1999/xlink" x="0px" y="0px"
	 viewBox="0 0 469.333 469.333" style="enable-background:new 0 0 469.333 469.333;" xml:space="preserve">
<g>
	<g>
		<g>
			<path d="M426.667,0h-384C19.146,0,0,19.135,0,42.667v384c0,23.531,19.146,42.667,42.667,42.667h384
				c23.521,0,42.667-19.135,42.667-42.667v-384C469.333,19.135,450.188,0,426.667,0z M448,426.667
				c0,11.76-9.563,21.333-21.333,21.333h-384c-11.771,0-21.333-9.573-21.333-21.333v-384c0-11.76,9.563-21.333,21.333-21.333h384
				c11.771,0,21.333,9.573,21.333,21.333V426.667z"/>
			<path d="M365.583,131.344L192.187,314.927l-88.25-98.062c-3.979-4.385-10.708-4.729-15.083-0.792s-4.729,10.688-0.792,15.063
				l96,106.667c2,2.219,4.833,3.49,7.813,3.531c0.042,0,0.083,0,0.125,0c2.938,0,5.729-1.208,7.75-3.344l181.333-192
				c4.042-4.281,3.854-11.031-0.417-15.073C376.396,126.865,369.604,127.062,365.583,131.344z"/>
		</g>
	</g>
</g>
<g>
</g>
<g>
</g>
<g>
</g>
<g>
</g>
<g>
</g>
<g>
</g>
<g>
</g>
<g>
</g>
<g>
</g>
<g>
</g>
<g>
</g>
<g>
</g>
<g>
</g>
<g>
</g>
<g>
</g>
</svg>
