<?xml version="1.0" encoding="iso-8859-1"?>
<!-- Generator: Adobe Illustrator 19.0.0, SVG Export Plug-In . SVG Version: 6.00 Build 0)  -->
<svg version="1.1" id="Layer_1" xmlns="http://www.w3.org/2000/svg" xmlns:xlink="http://www.w3.org/1999/xlink" x="0px" y="0px"
	 viewBox="0 0 512 512" style="enable-background:new 0 0 512 512;" xml:space="preserve">
<g>
	<g>
		<path d="M437.333,85.333c-19.958,0-38.708,7.771-53.021,22.094L256,243.292L127.479,107.208
			c-14.104-14.104-32.854-21.875-52.813-21.875C33.5,85.333,0,118.833,0,160c0,19.896,7.729,38.604,21.771,52.688l181.438,192.104
			c10.396,10.396,23.458,17.438,37.75,20.354c4.917,1.01,9.979,1.521,15.042,1.521s10.125-0.51,15.021-1.521
			c14.313-2.917,27.375-9.958,37.979-20.573l181.125-191.781C504.229,198.698,512,179.948,512,160
			C512,118.833,478.5,85.333,437.333,85.333z M474.833,197.927L293.708,389.708c-7.438,7.427-16.75,12.458-26.958,14.542
			c-7,1.438-14.479,1.438-21.521,0c-10.188-2.083-19.5-7.115-26.729-14.323l-181.333-192c-0.063-0.073-0.146-0.146-0.208-0.219
			C26.875,187.635,21.333,174.25,21.333,160c0-29.406,23.917-53.333,53.333-53.333c14.25,0,27.646,5.552,37.521,15.406
			L248.25,266.146c4,4.271,11.5,4.271,15.5,0l135.854-143.854c10.083-10.073,23.479-15.625,37.729-15.625
			c29.417,0,53.333,23.927,53.333,53.333C490.667,174.25,485.125,187.635,474.833,197.927z"/>
	</g>
</g>
<g>
</g>
<g>
</g>
<g>
</g>
<g>
</g>
<g>
</g>
<g>
</g>
<g>
</g>
<g>
</g>
<g>
</g>
<g>
</g>
<g>
</g>
<g>
</g>
<g>
</g>
<g>
</g>
<g>
</g>
</svg>
