<?xml version="1.0" encoding="iso-8859-1"?>
<!-- Generator: Adobe Illustrator 19.0.0, SVG Export Plug-In . SVG Version: 6.00 Build 0)  -->
<svg version="1.1" id="Layer_1" xmlns="http://www.w3.org/2000/svg" xmlns:xlink="http://www.w3.org/1999/xlink" x="0px" y="0px"
	 viewBox="0 0 512 512" style="enable-background:new 0 0 512 512;" xml:space="preserve">
<g>
	<g>
		<path d="M425.167,240.958c-2.938-14.313-9.979-27.375-20.583-37.969L212.792,21.865C198.687,7.76,179.937,0,160,0
			c-41.167,0-74.667,33.5-74.667,74.667c0,19.958,7.771,38.708,22.083,53.01L243.292,256L107.208,384.531
			c-14.104,14.104-21.875,32.854-21.875,52.802C85.333,478.5,118.833,512,160,512c19.896,0,38.583-7.729,52.688-21.76
			l192.104-181.438c10.396-10.385,17.438-23.438,20.375-37.76c1-4.885,1.5-9.948,1.5-15.042
			C426.667,251.031,426.167,245.99,425.167,240.958z M404.25,266.75c-2.083,10.219-7.125,19.542-14.333,26.75l-192,181.333
			c-0.063,0.063-0.146,0.135-0.208,0.208c-10.083,10.073-23.479,15.625-37.708,15.625c-29.417,0-53.333-23.927-53.333-53.333
			c0-14.25,5.542-27.646,15.417-37.51L266.167,263.75c2.125-2.01,3.333-4.813,3.333-7.75s-1.208-5.74-3.333-7.75L122.292,112.385
			c-10.083-10.073-15.625-23.458-15.625-37.719c0-29.406,23.917-53.333,53.333-53.333c14.229,0,27.625,5.552,37.917,15.823
			l191.792,181.125c7.417,7.427,12.458,16.75,14.542,26.917c0.688,3.49,1.083,7.104,1.083,10.802
			C405.333,259.656,404.979,263.281,404.25,266.75z"/>
	</g>
</g>
<g>
</g>
<g>
</g>
<g>
</g>
<g>
</g>
<g>
</g>
<g>
</g>
<g>
</g>
<g>
</g>
<g>
</g>
<g>
</g>
<g>
</g>
<g>
</g>
<g>
</g>
<g>
</g>
<g>
</g>
</svg>
