<?xml version="1.0" encoding="iso-8859-1"?>
<!-- Generator: Adobe Illustrator 19.0.0, SVG Export Plug-In . SVG Version: 6.00 Build 0)  -->
<svg version="1.1" id="Layer_1" xmlns="http://www.w3.org/2000/svg" xmlns:xlink="http://www.w3.org/1999/xlink" x="0px" y="0px"
	 viewBox="0 0 512 512" style="enable-background:new 0 0 512 512;" xml:space="preserve">
<g>
	<g>
		<path d="M490.229,299.299L308.792,107.185c-10.396-10.385-23.458-17.417-37.75-20.333c-9.833-2.021-20.271-2.021-30.063,0
			C226.667,89.768,213.604,96.8,203,107.414L21.875,299.195C7.771,313.299,0,332.049,0,351.997c0,41.167,33.5,74.667,74.667,74.667
			c19.958,0,38.708-7.771,53.021-22.104L256,268.695l128.521,136.083c14.104,14.115,32.854,21.885,52.813,21.885
			c41.167,0,74.667-33.5,74.667-74.667C512,332.102,504.271,313.393,490.229,299.299z M437.333,405.331
			c-14.25,0-27.646-5.552-37.521-15.417L263.75,245.841c-2-2.135-4.813-3.344-7.75-3.344s-5.75,1.208-7.75,3.344L112.396,389.695
			c-10.083,10.083-23.479,15.635-37.729,15.635c-29.417,0-53.333-23.927-53.333-53.333c0-14.25,5.542-27.646,15.833-37.938
			l181.125-191.771c7.438-7.427,16.75-12.458,26.958-14.542c7-1.438,14.479-1.438,21.521,0c10.188,2.083,19.5,7.115,26.729,14.313
			l181.333,192c0.063,0.073,0.146,0.146,0.208,0.219c10.083,10.073,15.625,23.469,15.625,37.719
			C490.667,381.404,466.75,405.331,437.333,405.331z"/>
	</g>
</g>
<g>
</g>
<g>
</g>
<g>
</g>
<g>
</g>
<g>
</g>
<g>
</g>
<g>
</g>
<g>
</g>
<g>
</g>
<g>
</g>
<g>
</g>
<g>
</g>
<g>
</g>
<g>
</g>
<g>
</g>
</svg>
