<?xml version="1.0" encoding="utf-8"?>
<!-- Generator: Adobe Illustrator 24.3.0, SVG Export Plug-In . SVG Version: 6.00 Build 0)  -->
<svg version="1.1" id="Layer_1" xmlns="http://www.w3.org/2000/svg" xmlns:xlink="http://www.w3.org/1999/xlink" x="0px" y="0px"
	 viewBox="0 0 14 17" style="enable-background:new 0 0 14 17;" xml:space="preserve">
<style type="text/css">
	.st0{fill:#D7D7D7;}
	.st1{fill:#FFFFFF;}
	.st2{fill:none;}
</style>
<g>
	<rect id="XMLID_1927_" x="2" y="4" class="st0" width="6" height="1"/>
	<rect id="XMLID_1926_" x="2" y="6" class="st0" width="1" height="1"/>
	<rect id="XMLID_1925_" x="2" y="8" class="st0" width="1" height="1"/>
	<rect id="XMLID_1921_" x="4" y="6" class="st1" width="10" height="9"/>
	<g id="XMLID_1917_">
		<path id="XMLID_1918_" d="M7.7,11.8L6.9,14H6l2.4-7h1.1l2.4,7h-1l-0.7-2.2H7.7z M10,11.1l-0.7-2C9.1,8.6,9,8.2,8.9,7.8l0,0
			C8.8,8.2,8.7,8.6,8.5,9.1l-0.7,2H10z"/>
	</g>
	<g id="XMLID_1894_">
		<polygon id="XMLID_1929_" class="st2" points="1,3 1,10 3,10 3,6 4,6 4,5 9,5 9,3 		"/>
		<polygon id="XMLID_1933_" class="st0" points="1,10 1,3 9,3 9,5 10,5 10,2 9.1,2 0.9,2 0,2 0,3 0,10 0,11 0.9,11 3,11 3,10 		"/>
	</g>
</g>
</svg>
