<?xml version="1.0" encoding="utf-8"?>
<!-- Generator: Adobe Illustrator 24.3.0, SVG Export Plug-In . SVG Version: 6.00 Build 0)  -->
<svg version="1.2" baseProfile="tiny" id="icons" xmlns="http://www.w3.org/2000/svg" xmlns:xlink="http://www.w3.org/1999/xlink"
	 x="0px" y="0px" viewBox="0 0 15 17" overflow="visible" xml:space="preserve">
<path fill="#FFE100" d="M7.5,16c-1,0-1.9-0.2-2.8-0.5l0.4-0.9C6.2,15,7.5,15.2,8.7,15l0.2,1C8.4,16,7.9,16,7.5,16z"/>
<path fill="#FFE100" d="M9.8,15.6l-0.3-1c1.2-0.4,2.2-1.1,3-2l0.8,0.6C12.4,14.4,11.2,15.2,9.8,15.6z"/>
<path fill="#FFE100" d="M3.8,15c-1.2-0.7-2.2-1.8-2.9-3l0.9-0.5c0.6,1.1,1.4,2,2.5,2.6L3.8,15z"/>
<path fill="#FFE100" d="M13.9,12.5L13,11.9c0.6-1,1-2.2,1-3.4l1-0.1v0.1C15,9.9,14.6,11.3,13.9,12.5z"/>
<path fill="#FFE100" d="M0.5,11.1C0,9.8-0.1,8.4,0.2,7l1,0.2C1.1,7.6,1,8.1,1,8.5c0,0.8,0.1,1.5,0.4,2.3L0.5,11.1z"/>
<path fill="#FFE100" d="M13.9,7.5c-0.2-1.2-0.7-2.3-1.5-3.2l0.8-0.7c0.9,1.1,1.5,2.4,1.7,3.8L13.9,7.5z"/>
<path fill="#FFE100" d="M1.4,6.3L0.4,6c0.5-1.3,1.3-2.5,2.4-3.4l0.6,0.8C2.5,4.2,1.8,5.2,1.4,6.3z"/>
<path fill="#FFE100" d="M11.8,3.6c-0.9-0.8-2-1.3-3.2-1.5l0.2-1c1.4,0.2,2.7,0.8,3.7,1.8L11.8,3.6z"/>
<path fill="#FFE100" d="M4.2,2.9L3.7,2c1.2-0.7,2.5-1,3.8-1h0.2v1H7.5C6.3,2,5.2,2.3,4.2,2.9z"/>
<path fill="#FFE100" d="M8.9,7.7c0.7-0.8,0.7-2-0.1-2.7C8,4.3,6.8,4.3,6.1,5.1C5.4,5.8,5.4,7,6.1,7.7c-1.2,0.8-1.6,2.4-0.8,3.6
	s2.4,1.6,3.6,0.8s1.6-2.4,0.8-3.6C9.5,8.2,9.2,7.9,8.9,7.7z M6.6,6.4c0-0.5,0.4-0.9,0.9-0.9s0.9,0.4,0.9,0.9S8,7.3,7.5,7.3
	S6.6,6.9,6.6,6.4L6.6,6.4z M7.5,11.5c-0.9,0-1.6-0.7-1.6-1.6c0-0.9,0.7-1.6,1.6-1.6S9.1,9,9.1,9.9S8.4,11.5,7.5,11.5L7.5,11.5z"/>
</svg>
