<?xml version="1.0" encoding="utf-8"?>
<!-- Generator: Adobe Illustrator 24.3.0, SVG Export Plug-In . SVG Version: 6.00 Build 0)  -->
<svg version="1.1" id="icons" xmlns="http://www.w3.org/2000/svg" xmlns:xlink="http://www.w3.org/1999/xlink" x="0px" y="0px"
	 viewBox="0 0 15 17" style="enable-background:new 0 0 15 17;" xml:space="preserve">
<style type="text/css">
	.st0{fill:#FA5A28;}
	.st1{fill:#D7D7D7;}
</style>
<path class="st0" d="M7.5,16c-1,0-1.9-0.2-2.8-0.5l0.4-0.9c1.1,0.4,2.4,0.6,3.6,0.4l0.2,1C8.4,16,7.9,16,7.5,16z"/>
<path class="st0" d="M9.8,15.6l-0.3-1c1.2-0.4,2.2-1.1,3-2l0.8,0.6C12.4,14.4,11.2,15.2,9.8,15.6z"/>
<path class="st0" d="M3.8,15c-1.2-0.7-2.2-1.8-2.9-3l0.9-0.5c0.6,1.1,1.4,2,2.5,2.6L3.8,15z"/>
<path class="st0" d="M13.9,12.5L13,11.9c0.6-1,1-2.2,1-3.4l1-0.1v0.1C15,9.9,14.6,11.3,13.9,12.5z"/>
<path class="st0" d="M0.5,11.1C0,9.8-0.1,8.4,0.2,7l1,0.2C1.1,7.6,1,8.1,1,8.5c0,0.8,0.1,1.5,0.4,2.3L0.5,11.1z"/>
<path class="st0" d="M13.9,7.5c-0.2-1.2-0.7-2.3-1.5-3.2l0.8-0.7c0.9,1.1,1.5,2.4,1.7,3.8L13.9,7.5z"/>
<path class="st0" d="M1.4,6.3L0.4,6c0.5-1.3,1.3-2.5,2.4-3.4l0.6,0.8C2.5,4.2,1.8,5.2,1.4,6.3z"/>
<path class="st0" d="M11.8,3.6c-0.9-0.8-2-1.3-3.2-1.5l0.2-1c1.4,0.2,2.7,0.8,3.7,1.8L11.8,3.6z"/>
<path class="st0" d="M4.2,2.9L3.7,2c1.2-0.7,2.5-1,3.8-1h0.2v1H7.5C6.3,2,5.2,2.3,4.2,2.9z"/>
<path class="st1" d="M8.6,8.3L8.6,8.3C8.9,7.9,9,7.4,9,6.9c0-1.4-1.1-2.5-2.5-2.5S4,5.5,4,6.9s1.1,2.5,2.5,2.5h0.1l-1.5,2.2l0.8,0.6
	L8.6,8.3L8.6,8.3L8.6,8.3z M6.5,8.4C5.7,8.4,5,7.8,5,6.9c0-0.8,0.6-1.5,1.5-1.5C7.3,5.4,8,6.1,8,6.9c0,0,0,0,0,0
	c0,0.3-0.1,0.6-0.2,0.8l0,0C7.5,8.2,7,8.4,6.5,8.4z"/>
<polygon class="st1" points="12,10 11,10 11,9 10,9 10,10 9,10 9,11 10,11 10,12 11,12 11,11 12,11 "/>
</svg>
