<svg xmlns="http://www.w3.org/2000/svg" x="0" y="0" viewBox="0 0 12 17">
<path fill="#D7D7D7" d="M6.1,2C2.7,2,0,4.8,0,8.1c0,2.7,1.7,5,4.2,5.8c0.3,0.1,0.4-0.1,0.4-0.3c0-0.2,0-0.5,0-1
	c-1.7,0.4-2-0.8-2-0.8c-0.1-0.4-0.3-0.7-0.7-0.9c-0.6-0.4,0-0.4,0-0.4c0.4,0.1,0.7,0.3,0.9,0.6c0.3,0.6,1.1,0.8,1.7,0.5l0,0
	c0-0.3,0.2-0.6,0.4-0.8C3.4,11,2.1,9.7,2,8.1C2,8,2,7.8,2,7.7c0-0.6,0.2-1.2,0.6-1.6C2.4,5.6,2.4,5,2.7,4.5c0,0,0.5-0.2,1.6,0.6
	c1-0.3,2-0.3,3.1,0c1.1-0.8,1.6-0.6,1.6-0.6C9.2,5,9.2,5.6,9.1,6.1c0.4,0.4,0.6,1,0.6,1.6c0,2.4-1.4,2.9-2.7,3.1
	c0.3,0.3,0.4,0.7,0.4,1.1c0,0.8,0,1.4,0,1.6s0.1,0.4,0.4,0.3c3.2-1.1,4.9-4.6,3.9-7.8C11,3.7,8.7,2,6.1,2z"/>
</svg>
