<svg xmlns="http://www.w3.org/2000/svg" x="0px" y="0px" viewBox="0 0 14 17" xml:space="preserve">
	<path fill="#D7D7D7" d="M0,3.5v10h14v-10H0z M4.7,9.8c0.4,0,0.7-0.2,0.9-0.5l1.1,1.5c-0.5,0.5-1.2,0.9-2.2,0.9c-1.7,0-3-1.3-3-3.2
		c0-1.9,1.3-3.2,3-3.2c0.9,0,1.7,0.3,2.2,0.8L5.6,7.6C5.4,7.3,5,7.2,4.7,7.2C4,7.2,3.5,7.7,3.5,8.5C3.5,9.3,4.1,9.8,4.7,9.8z
		M10.4,9.8c0.4,0,0.7-0.2,0.9-0.5l1.1,1.5c-0.5,0.5-1.2,0.9-2.2,0.9c-1.7,0-3-1.3-3-3.2c0-1.9,1.3-3.2,3-3.2c0.9,0,1.7,0.3,2.2,0.8
		l-1.1,1.5c-0.2-0.3-0.5-0.5-0.9-0.5c-0.6,0-1.1,0.5-1.1,1.3C9.3,9.3,9.8,9.8,10.4,9.8z"/>
</svg>
