<?xml version="1.0" encoding="utf-8"?>
<!-- Generator: Adobe Illustrator 24.3.0, SVG Export Plug-In . SVG Version: 6.00 Build 0)  -->
<svg version="1.2" baseProfile="tiny" id="Layer_1" xmlns="http://www.w3.org/2000/svg" xmlns:xlink="http://www.w3.org/1999/xlink"
	 x="0px" y="0px" viewBox="0 0 10 17" overflow="visible" xml:space="preserve">
<g>
	<rect x="1" y="7" fill="none" width="1" height="1"/>
</g>
<path fill="#787878" d="M6,2H0v12h10V6L6,2z M3,5h4v1H3V5z M2,12H1v-1h1V12z M2,10H1V9h1V10z M2,8H1V7h1V8z M2,6H1V5h1V6z M9,12H3
	v-1h6V12z M9,10H3V9h6V10z M9,8H3V7h6V8z"/>
</svg>
