<?xml version="1.0" encoding="utf-8"?>
<!-- Generator: Adobe Illustrator 24.3.0, SVG Export Plug-In . SVG Version: 6.00 Build 0)  -->
<svg version="1.1" id="icons" xmlns="http://www.w3.org/2000/svg" xmlns:xlink="http://www.w3.org/1999/xlink" x="0px" y="0px"
	 viewBox="0 0 12 17" style="enable-background:new 0 0 12 17;" xml:space="preserve">
<style type="text/css">
	.st0{fill:#D7D7D7;}
</style>
<path class="st0" d="M10.5,10h-2C8.2,10,8,9.8,8,9.5C8,9.2,8.2,9,8.5,9h3V8H10V7H9v1H8.5C7.7,8,7,8.7,7,9.5C7,10.3,7.7,11,8.5,11h2
	c0.3,0,0.5,0.2,0.5,0.5S10.8,12,10.5,12h-3v1H9v1h1v-1h0.5c0.8,0,1.5-0.7,1.5-1.5S11.3,10,10.5,10z"/>
<g id="icons-2">
	<polygon class="st0" points="3.5,6.4 3.5,2 2.3,2 2.3,6.4 0,6.4 2.9,11.4 5.8,6.4 	"/>
	<rect x="0.1" y="12.7" class="st0" width="5.7" height="1.3"/>
</g>
</svg>
