<?xml version="1.0" encoding="utf-8"?>
<!-- Generator: Adobe Illustrator 24.3.0, SVG Export Plug-In . SVG Version: 6.00 Build 0)  -->
<svg version="1.1" id="icons" xmlns="http://www.w3.org/2000/svg" xmlns:xlink="http://www.w3.org/1999/xlink" x="0px" y="0px"
	 viewBox="0 0 12 17" style="enable-background:new 0 0 12 17;" xml:space="preserve">
<style type="text/css">
	.st0{fill:#D7D7D7;}
</style>
<g id="icons-2">
	<polygon class="st0" points="3.5,6 3.5,1 2.3,1 2.3,6 0,6 2.9,11 5.8,6 	"/>
	<rect y="13" class="st0" width="6" height="1"/>
</g>
<g>
	<path class="st0" d="M7,10.1C7,9.4,7.4,9,8.2,9s1.2,0.5,1.2,1.1c0,0.6-0.5,1.1-1.2,1.1C7.4,11.2,7,10.7,7,10.1z M8.6,10.1
		c0-0.3-0.2-0.6-0.4-0.6s-0.5,0.3-0.5,0.6s0.3,0.5,0.5,0.5C8.5,10.6,8.6,10.5,8.6,10.1z M7.7,13.6L10.6,9h0.7l-3,4.6H7.7z M9.6,12.5
		c0-0.7,0.4-1.1,1.2-1.1c0.7,0,1.2,0.5,1.2,1.1s-0.5,1.1-1.2,1.1C10,13.7,9.6,13.1,9.6,12.5z M11.2,12.5c0-0.3-0.2-0.5-0.4-0.5
		c-0.3,0-0.4,0.2-0.4,0.5s0.2,0.5,0.4,0.5C11.1,13.1,11.2,12.9,11.2,12.5z"/>
</g>
</svg>
