<svg xmlns="http://www.w3.org/2000/svg" x="0" y="0" viewBox="0 0 11 17">
<g fill="#FFE100">
<circle cx="5.5" cy="8.5" r="2.5"/>
<rect x="5" y="3" width="1" height="2"/>
<rect x="5" y="12" width="1" height="2"/>
<rect x="9" y="8" width="2" height="1"/>
<rect y="8" width="2" height="1"/>
<rect x="8.2" y="10.7" transform="matrix(0.7071 -0.7071 0.7071 0.7071 -5.7241 9.5768)" width="1" height="2"/>
<rect x="1.8" y="4.29" transform="matrix(0.7071 -0.7071 0.7071 0.7071 -3.0695 3.1771)" width="1" height="2"/>
<rect x="7.7" y="4.8" transform="matrix(0.7071 -0.7071 0.7071 0.7071 -1.1965 7.7043)" width="2" height="1"/>
<rect x="1.3" y="11.2" transform="matrix(0.7071 -0.7071 0.7071 0.7071 -7.5967 5.0502)" width="2" height="1"/>
</g>
</svg>
