<?xml version="1.0" encoding="utf-8"?>
<!-- Generator: Adobe Illustrator 24.3.0, SVG Export Plug-In . SVG Version: 6.00 Build 0)  -->
<svg version="1.1" id="icons" xmlns="http://www.w3.org/2000/svg" xmlns:xlink="http://www.w3.org/1999/xlink" x="0px" y="0px"
	 viewBox="0 0 11 17" style="enable-background:new 0 0 11 17;" xml:space="preserve">
<style type="text/css">
	.st0{fill:#D7D7D7;}
</style>
<path class="st0" d="M9,5.5C9,3.5,7.4,2,5.5,2S2,3.5,2,5.5C0.3,6.3-0.5,8.3,0.3,10c0.6,1.2,1.8,2,3.2,2H5v2h1v-2h1.5
	c1.9,0,3.5-1.5,3.5-3.4C11,7.3,10.2,6,9,5.5z M7.5,11H6V8.9l1.7-0.8L7.3,7.2L6,7.8V6H5v2.8L3.7,8.1l-0.4,1L5,9.9V11H3.5
	C2.1,11,1,9.9,1,8.5c0-1,0.7-1.9,1.6-2.3L3,6.1V5.6c0-1.4,1.1-2.5,2.5-2.5S8,4.2,8,5.6v0.5l0.3,0.1C9.6,6.6,10.4,8,10,9.3
	C9.7,10.4,8.6,11.1,7.5,11z"/>
</svg>
