<?xml version="1.0" encoding="utf-8"?>
<!-- Generator: Adobe Illustrator 24.3.0, SVG Export Plug-In . SVG Version: 6.00 Build 0)  -->
<svg version="1.1" id="Layer_1" xmlns="http://www.w3.org/2000/svg" xmlns:xlink="http://www.w3.org/1999/xlink" x="0px" y="0px"
	 viewBox="0 0 12 17" style="enable-background:new 0 0 12 17;" xml:space="preserve">
<style type="text/css">
	.st0{fill:#FF2D4B;}
</style>
<path class="st0" d="M6,2.3c-3.3,0-6,2.7-6,6s2.7,6,6,6c3.3,0,6-2.7,6-6S9.3,2.3,6,2.3z M1.5,8.3c0-2.5,2-4.5,4.5-4.5
	c0.2,0,0.4,0,0.6,0.1L3.6,6.8l3,3L4,12.3C2.5,11.6,1.5,10.1,1.5,8.3z M6,12.8c-0.2,0-0.4,0-0.6-0.1l2.9-2.9l-3-3l2.5-2.5
	c1.5,0.7,2.6,2.3,2.6,4C10.5,10.8,8.5,12.8,6,12.8z"/>
</svg>
