<?xml version="1.0" encoding="utf-8"?>
<!-- Generator: Adobe Illustrator 24.3.0, SVG Export Plug-In . SVG Version: 6.00 Build 0)  -->
<svg version="1.1" id="Layer_1" xmlns="http://www.w3.org/2000/svg" xmlns:xlink="http://www.w3.org/1999/xlink" x="0px" y="0px"
	 viewBox="0 0 15 17" style="enable-background:new 0 0 15 17;" xml:space="preserve">
<style type="text/css">
	.st0{fill:#8C8C8C;}
	.st1{fill:#D7D7D7;}
</style>
<path id="XMLID_33_" class="st0" d="M7,14v-2c0-1.1,0.5-1.3,1.7-1.7c0.4-0.2,0.7-0.3,0.9-0.4c0.2,0,0.3-0.2,0.4-0.5
	c0.1-0.8,0.1-0.8-0.2-1.2C9.4,7.9,9.2,7.4,9.2,7s0-0.1,0-1.1C9.2,4.7,10.1,4,11,4s1.8,0.7,1.8,1.9c0,0.9,0,0.6,0,1.1
	c0,0.4-0.2,1-0.6,1.3c-0.3,0.3-0.3,0.3-0.2,1.2c0,0.2,0.2,0.4,0.4,0.5s0.5,0.2,0.9,0.3c1.2,0.4,1.7,0.6,1.7,1.7v2H7z"/>
<path id="XMLID_30_" class="st1" d="M5.5,14H0v-1c0-1.5,0.7-1.8,2.3-2.4c0.6-0.2,1-0.4,1.2-0.5c0.3,0,0.5-0.3,0.6-0.6
	c0.2-1.2,0.2-1.2-0.3-1.6S3,6.6,3,6s0-0.3,0-1.4C3,3,4.2,2,5.5,2S8,3,8,4.6C8,5.7,8,5.4,8,6S7.7,7.4,7.2,7.9S6.8,8.3,6.9,9.5
	c0,0.3,0.2,0.6,0.5,0.7c0.3,0.1,0.6,0.2,1.2,0.5c1.7,0.5,2.4,0.8,2.4,2.3v1H5.5z"/>
</svg>
