<?xml version="1.0" encoding="utf-8"?>
<!-- Generator: Adobe Illustrator 24.3.0, SVG Export Plug-In . SVG Version: 6.00 Build 0)  -->
<svg version="1.2" baseProfile="tiny" id="Layer_1" xmlns="http://www.w3.org/2000/svg" xmlns:xlink="http://www.w3.org/1999/xlink"
	 x="0px" y="0px" viewBox="0 0 13 17" overflow="visible" xml:space="preserve">
<g>
	<path fill="#D7D7D7" d="M6.5,14L1,8.2C0.3,7.5,0,6.6,0,5.6c0-1,0.4-1.9,1.1-2.6c1.4-1.3,3.4-1.3,4.8,0l0.6,0.6L7,3
		C7.8,2.3,8.6,2,9.6,2c1,0,1.8,0.4,2.5,1.1c1.3,1.5,1.3,3.6,0,5.1L6.5,14z M3.5,3.1c-0.6,0-1.2,0.2-1.7,0.7C1.3,4.2,1,4.9,1,5.6
		C1,6.3,1.2,7,1.7,7.5l4.8,5l4.8-5c0.9-1.1,0.9-2.5,0-3.6c-0.4-0.5-1.1-0.8-1.7-0.8C8.9,3,8.2,3.3,7.7,3.8L6.5,5.1L5.2,3.8
		C4.7,3.3,4.1,3.1,3.5,3.1z"/>
</g>
</svg>
