<?xml version="1.0" encoding="utf-8"?>
<!-- Generator: Adobe Illustrator 24.3.0, SVG Export Plug-In . SVG Version: 6.00 Build 0)  -->
<svg version="1.1" id="Layer_1" xmlns="http://www.w3.org/2000/svg" xmlns:xlink="http://www.w3.org/1999/xlink" x="0px" y="0px"
	 viewBox="0 0 12 17" style="enable-background:new 0 0 12 17;" xml:space="preserve">
<style type="text/css">
	.st0{fill:#FF5B00;}
</style>
<path class="st0" d="M1.2,14.2c-0.2,0-0.4-0.1-0.5-0.2c-0.2-0.3-0.2-0.7,0.1-0.9c2.1-1.6,1.4-2.6,0.4-4.2c-1-1.4-2.3-3.4,0.6-5.8
	c0.3-0.2,0.7-0.2,0.9,0.1s0.2,0.7-0.1,0.9C0.5,5.7,1.2,6.7,2.2,8.3c1,1.5,2.3,3.5-0.6,5.8C1.5,14.2,1.3,14.2,1.2,14.2z"/>
<path class="st0" d="M5.2,14.2c-0.2,0-0.4-0.1-0.5-0.2c-0.2-0.3-0.2-0.7,0.1-0.9c2.1-1.6,1.4-2.6,0.4-4.2c-1-1.4-2.3-3.4,0.6-5.8
	c0.3-0.2,0.7-0.2,0.9,0.1c0.2,0.3,0.2,0.7-0.1,0.9C4.5,5.7,5.2,6.7,6.2,8.3c1,1.5,2.3,3.5-0.6,5.8C5.5,14.2,5.3,14.2,5.2,14.2z"/>
<path class="st0" d="M9.2,14.2c-0.2,0-0.4-0.1-0.5-0.2c-0.2-0.3-0.2-0.7,0.1-0.9c2.1-1.6,1.4-2.6,0.4-4.2c-1-1.4-2.3-3.4,0.6-5.8
	c0.3-0.2,0.7-0.2,0.9,0.1s0.2,0.7-0.1,0.9c-2.1,1.6-1.4,2.6-0.4,4.2c1,1.5,2.3,3.5-0.6,5.8C9.5,14.2,9.3,14.2,9.2,14.2z"/>
</svg>
