
<svg version="1.2" baseProfile="tiny" id="Layer_1" xmlns="http://www.w3.org/2000/svg" xmlns:xlink="http://www.w3.org/1999/xlink"
	 x="0px" y="0px" viewBox="0 0 13 17" overflow="visible" xml:space="preserve">
<rect x="1" y="5" fill="#E4B9FF" width="1" height="3"/>
<rect x="1" y="9" fill="#E4B9FF" width="1" height="3"/>
<rect x="11" y="5" fill="#E4B9FF" width="1" height="3"/>
<polygon fill="#E4B9FF" points="11,9 12,9 12,12 11,12 "/>
<polygon fill="#E4B9FF" points="3,2 1,2 1,4 2,4 2,3 3,3 "/>
<rect x="4" y="2" fill="#E4B9FF" width="5" height="1"/>
<rect x="4" y="14" fill="#E4B9FF" width="5" height="1"/>
<polygon fill="#E4B9FF" points="10,2 10,3 11,3 11,4 12,4 12,2 "/>
<polygon fill="#E4B9FF" points="2,14 2,13 1,13 1,15 3,15 3,14 "/>
<polygon fill="#E4B9FF" points="11,13 11,14 10,14 10,15 12,15 12,13 "/>
<path fill="#D7D7D7" d="M3,4v9h7V4H3z"/>
<rect x="4" y="6" width="3" height="1"/>
<polygon points="4,8 9,8 9,9 4,9 "/>
<rect x="4" y="10" width="5" height="1"/>
</svg>
