<?xml version="1.0" encoding="utf-8"?>
<!-- Generator: Adobe Illustrator 22.0.1, SVG Export Plug-In . SVG Version: 6.00 Build 0)  -->
<svg version="1.2" baseProfile="tiny" id="Layer_1" xmlns="http://www.w3.org/2000/svg" xmlns:xlink="http://www.w3.org/1999/xlink"
	 x="0px" y="0px" viewBox="0 0 12 17" xml:space="preserve">
<g id="icons">
	<path fill="#787878" d="M6,2C3.2,2,1,4.2,1,7v3v0.6C1,12.5,2.5,14,4.4,14h1.2H6h0.4C6.7,14,7,13.7,7,13.4v-0.8
		C7,12.3,6.7,12,6.4,12H5.6C5.3,12,5,12.3,5,12.6V13H4.4C3.1,13,2,11.9,2,10.6V10h0.5C3.3,10,4,9.3,4,8.5S3.3,7,2.5,7H2
		c0-2.2,1.8-4,4-4s4,1.8,4,4H9.5C8.7,7,8,7.7,8,8.5S8.7,10,9.5,10H11V9V7C11,4.2,8.8,2,6,2z"/>
</g>
</svg>
