<?xml version="1.0" encoding="utf-8"?>
<!-- Generator: Adobe Illustrator 19.2.1, SVG Export Plug-In . SVG Version: 6.00 Build 0)  -->
<svg version="1.2" baseProfile="tiny" id="Layer_1" xmlns="http://www.w3.org/2000/svg" xmlns:xlink="http://www.w3.org/1999/xlink"
	 x="0px" y="0px" viewBox="0 0 13 17" xml:space="preserve">
<g>
	<path fill="#D7D7D7" d="M10.5,9.5c0.3-0.6,0.5-1.3,0.5-2V7h-1v0.5C10,8,9.9,8.4,9.7,8.9L10.5,9.5z"/>
	<path fill="#D7D7D7" d="M9.8,13H7v-1.1c0.5-0.1,0.9-0.2,1.3-0.4l-0.8-0.6c-0.4,0-0.7,0.1-1,0.1C4.6,11,3,9.4,3,7.5V7H2v0.5
		c0,2.3,1.8,4.2,4,4.4V13H3v1h3h1h3v-0.8L9.8,13z"/>
</g>
<g>
	<path fill="#D7D7D7" d="M8.9,8.1C9,7.9,9,7.7,9,7.5v-3C9,3.1,7.9,2,6.5,2C5.4,2,4.4,2.8,4.1,3.8L8.9,8.1z"/>
	<path fill="#D7D7D7" d="M4,7.8C4.2,9,5.2,10,6.5,10l0,0L4,7.8z"/>
</g>
<g>
	<rect x="6.3" y="0.6" transform="matrix(0.6704 -0.742 0.742 0.6704 -3.6956 7.7059)" fill="#D7D7D7" width="1" height="14.8"/>
</g>
</svg>
