<?xml version="1.0" encoding="utf-8"?>
<!-- Generator: Adobe Illustrator 24.3.0, SVG Export Plug-In . SVG Version: 6.00 Build 0)  -->
<svg version="1.1" id="Layer_1" xmlns="http://www.w3.org/2000/svg" xmlns:xlink="http://www.w3.org/1999/xlink" x="0px" y="0px"
	 viewBox="0 0 16 17" style="enable-background:new 0 0 16 17;" xml:space="preserve">
<style type="text/css">
	.st0{fill:#D7D7D7;}
</style>
<g>
	<path id="more-a" class="st0" d="M8,10c-1.1,0-2-0.9-2-2s0.9-2,2-2s2,0.9,2,2S9.1,10,8,10z M14,10c-1.1,0-2-0.9-2-2s0.9-2,2-2
		s2,0.9,2,2S15.1,10,14,10z M2,10c-1.1,0-2-0.9-2-2s0.9-2,2-2s2,0.9,2,2S3.1,10,2,10z"/>
</g>
</svg>
