<?xml version="1.0" encoding="utf-8"?>
<!-- Generator: Adobe Illustrator 19.2.1, SVG Export Plug-In . SVG Version: 6.00 Build 0)  -->
<svg version="1.2" baseProfile="tiny" id="Layer_1" xmlns="http://www.w3.org/2000/svg" xmlns:xlink="http://www.w3.org/1999/xlink"
	 x="0px" y="0px" viewBox="0 0 14 17" xml:space="preserve">
<g>
	<path fill="#787878" d="M8.7,10.4c-0.1,0-0.2,0.1-0.4,0.2c0.2,0.1,0.4,0.2,0.7,0.4c0.6,0.4,1.1,0.6,1.1,1.5V13H13v-0.9
		c0-0.9-0.4-1.1-1.3-1.4c-0.2-0.1-0.5-0.2-0.7-0.3c-0.2-0.1-0.3-0.2-0.3-0.4c-0.1-0.7-0.1-0.7,0.2-0.9c0.3-0.3,0.4-0.7,0.5-1.1V7.1
		c0-0.8-0.6-1.5-1.5-1.5c-0.8,0-1.5,0.7-1.5,1.5c0,0,0,0,0,0v0.8c0,0.4,0.2,0.8,0.5,1.1C9.2,9.3,9.2,9.3,9.1,10
		C9,10.2,8.9,10.4,8.7,10.4z"/>
	<path fill="#787878" d="M9.4,13v-0.3c0-1.2-0.5-1.4-1.8-1.9c-0.3-0.2-0.6-0.3-0.9-0.4c-0.2-0.1-0.4-0.3-0.4-0.6
		C6.3,9,6.2,9,6.6,8.6C7,8.2,7.2,7.7,7.2,7.1V6c0-1.1-0.8-2-1.9-2c-1.1,0-2,0.8-2,1.9c0,0,0,0.1,0,0.1v1.1c0,0.5,0.2,1.2,0.6,1.5
		S4.3,9,4.2,9.9c-0.1,0.2-0.2,0.5-0.5,0.5c-0.3,0.2-0.6,0.3-0.9,0.4C1.5,11.3,1,11.5,1,12.7V13H9.4z"/>
</g>
</svg>
