<?xml version="1.0" encoding="utf-8"?>
<!-- Generator: Adobe Illustrator 24.3.0, SVG Export Plug-In . SVG Version: 6.00 Build 0)  -->
<svg version="1.2" baseProfile="tiny" id="Layer_1" xmlns="http://www.w3.org/2000/svg" xmlns:xlink="http://www.w3.org/1999/xlink"
	 x="0px" y="0px" viewBox="0 0 14 14" overflow="visible" xml:space="preserve">
<polyline fill="#66ABFF" points="14,0 13,0 1,0 1,1 13,1 13,12 14,12 14,1.1 14,0 "/>
<path fill="#66ABFF" d="M0,4v8c0,1.1,0.9,2,2,2h8c1.1,0,2-0.9,2-2V4c0-1.1-0.9-2-2-2H2C0.9,2,0,2.9,0,4z"/>
<g>
	<path d="M6.1,11.8c-1.7,0-2.7-1.2-2.7-3.1V7.6c0-2,1-3.1,2.7-3.1s2.7,1.2,2.7,3.1v1.1C8.7,10.7,7.7,11.8,6.1,11.8z M7.5,8.7V7.6
		c0-1.4-0.5-2.1-1.5-2.1S4.6,6.3,4.6,7.6v1.1c0,1.4,0.5,2.1,1.5,2.1S7.5,10.1,7.5,8.7z"/>
</g>
</svg>
