<?xml version="1.0" encoding="utf-8"?>
<!-- Generator: Adobe Illustrator 24.3.0, SVG Export Plug-In . SVG Version: 6.00 Build 0)  -->
<svg version="1.2" baseProfile="tiny" id="Layer_1" xmlns="http://www.w3.org/2000/svg" xmlns:xlink="http://www.w3.org/1999/xlink"
	 x="0px" y="0px" viewBox="0 0 12 17" overflow="visible" xml:space="preserve">
<g>
	<path fill="#66ABFF" d="M0,4v8c0,1.1,0.9,2,2,2h8c1.1,0,2-0.9,2-2V4c0-1.1-0.9-2-2-2H2C0.9,2,0,2.9,0,4z"/>
</g>
<g>
	<path d="M6,11.5c-1.7,0-2.7-1.2-2.7-3.1V7.3c0-2,1-3.1,2.7-3.1c1.7,0,2.7,1.2,2.7,3.1v1.1C8.6,10.4,7.6,11.5,6,11.5z M7.4,8.4V7.3
		C7.4,6,6.9,5.2,6,5.2S4.5,6,4.5,7.3v1.1c0,1.4,0.5,2.1,1.5,2.1S7.4,9.7,7.4,8.4z"/>
</g>
</svg>
