<?xml version="1.0" encoding="utf-8"?>
<!-- Generator: Adobe Illustrator 24.3.0, SVG Export Plug-In . SVG Version: 6.00 Build 0)  -->
<svg version="1.1" id="Layer_1" xmlns="http://www.w3.org/2000/svg" xmlns:xlink="http://www.w3.org/1999/xlink" x="0px" y="0px"
	 viewBox="0 0 12 17" style="enable-background:new 0 0 12 17;" xml:space="preserve">
<style type="text/css">
	.st0{fill:#FFA028;}
	.st1{fill:#D7D7D7;}
</style>
<g id="icons">
	<g>
		<path class="st0" d="M1,9H0V3h3c1.1,0,2,0.9,2,2S4.1,7,3,7H1V9z M1,6h2c0.6,0,1-0.4,1-1S3.6,4,3,4H1V6z"/>
	</g>
	<polygon class="st1" points="12,8 12,7 6,7 6,10 2,10 2,11 6,11 6,14 12,14 12,13 7,13 7,11 12,11 12,10 7,10 7,8 	"/>
</g>
</svg>
