<?xml version="1.0" encoding="utf-8"?>
<!-- Generator: Adobe Illustrator 24.3.0, SVG Export Plug-In . SVG Version: 6.00 Build 0)  -->
<svg version="1.2" baseProfile="tiny" id="Layer_1" xmlns="http://www.w3.org/2000/svg" xmlns:xlink="http://www.w3.org/1999/xlink"
	 x="0px" y="0px" viewBox="0 0 16 17" overflow="visible" xml:space="preserve">
<g id="icons_38_">
	<polygon fill="#FA5A28" points="4,9 11,9 11,12 16,8 11,4 11,7 4,7 	"/>
</g>
<g>
	<path fill="#D7D7D7" d="M8,10V9.8c-0.6,1-1.7,1.7-3,1.7c-1.9,0-3.5-1.6-3.5-3.5S3.1,4.5,5,4.5c1.3,0,2.4,0.7,3,1.7V6h1.6
		C8.8,4.2,7,3,5,3C2.2,3,0,5.2,0,8s2.2,5,5,5c2,0,3.8-1.2,4.6-3H8z"/>
</g>
</svg>
