<?xml version="1.0" encoding="utf-8"?>
<!-- Generator: Adobe Illustrator 22.0.1, SVG Export Plug-In . SVG Version: 6.00 Build 0)  -->
<svg version="1.2" baseProfile="tiny" id="Layer_3" xmlns="http://www.w3.org/2000/svg" xmlns:xlink="http://www.w3.org/1999/xlink"
	 x="0px" y="0px" viewBox="0 0 14 17" xml:space="preserve">
<g>
	<path fill="#787878" d="M10.5,4.5C9.6,3.6,8.4,3,7,3C4.6,3,2.6,4.7,2.1,7h1.2C3.7,5.4,5.2,4.2,7,4.2c1.1,0,2,0.4,2.7,1.1L8,7h2.7
		h1.2H12V3L10.5,4.5z"/>
	<path fill="#787878" d="M7,11.8c-1.1,0-2-0.4-2.7-1.1L6,9H3.3H2.1H2v4l1.5-1.5C4.4,12.4,5.6,13,7,13c2.4,0,4.4-1.7,4.9-4h-1.2
		C10.3,10.6,8.8,11.8,7,11.8z"/>
</g>
</svg>
