<?xml version="1.0" encoding="utf-8"?>
<!-- Generator: Adobe Illustrator 22.0.1, SVG Export Plug-In . SVG Version: 6.00 Build 0)  -->
<svg version="1.1" id="Layer_1" xmlns="http://www.w3.org/2000/svg" xmlns:xlink="http://www.w3.org/1999/xlink" x="0px" y="0px"
	 viewBox="0 0 12 17" style="enable-background:new 0 0 12 17;" xml:space="preserve">
	<path fill="#787878" d="M9,9.6l-1,1l-0.4-0.2c-1.7-0.9-3-2.3-3.9-3.9L3.5,6.2l1-1c0.3-0.3,0.3-0.8,0-1.2L2.8,2.2
		c-0.4-0.3-0.9-0.3-1.2,0L0,3.8l0,0c0,1.9,0.6,3.6,1.8,5.1l0.9,1.2c0.4,0.4,0.9,0.8,1.3,1.2l1.1,0.9c1.5,1.1,3.2,1.8,5.1,1.8l0,0
		l1.6-1.5c0.3-0.3,0.3-0.8,0-1.2l-1.7-1.7C9.8,9.3,9.3,9.3,9,9.6z"/>
</svg>
