<?xml version="1.0" encoding="utf-8"?>
<!-- Generator: Adobe Illustrator 22.0.1, SVG Export Plug-In . SVG Version: 6.00 Build 0)  -->
<svg version="1.2" baseProfile="tiny" id="Untitled-Page_x25_201"
	 xmlns="http://www.w3.org/2000/svg" xmlns:xlink="http://www.w3.org/1999/xlink" x="0px" y="0px" viewBox="0 0 21 42"
	 xml:space="preserve">
<g>
	<path fill="#D7D7D7" d="M3,15h2.6l0.5-2h3.6l0.5,2H13L9,5H7L3,15L3,15z M6.6,11L8,7.5L9.4,11H6.6z"/>
	<path fill="#FF9F0F" d="M12.5,7h5L15,4L12.5,7z"/>
</g>
<g>
	<path fill="#535353" d="M3,36h2.6l0.5-2h3.6l0.5,2H13L9,26H7L3,36L3,36z M6.6,32L8,28.5L9.4,32H6.6z"/>
	<path fill="#535353" d="M12.5,28h5L15,25L12.5,28z"/>
</g>
</svg>
