<?xml version="1.0" encoding="utf-8"?>
<!-- Generator: Adobe Illustrator 22.0.1, SVG Export Plug-In . SVG Version: 6.00 Build 0)  -->
<svg version="1.2" baseProfile="tiny" id="Untitled-Page_x25_201"
	 xmlns="http://www.w3.org/2000/svg" xmlns:xlink="http://www.w3.org/1999/xlink" x="0px" y="0px" viewBox="0 0 21 42"
	 xml:space="preserve">
<g>
	<path fill="#FF9F0F" d="M14,13h5l-2.5,3L14,13z"/>
	<rect x="5" y="14" fill="#D7D7D7" width="2" height="2"/>
	<rect x="8" y="14" fill="#D7D7D7" width="2" height="2"/>
	<rect x="11" y="14" fill="#D7D7D7" width="2" height="2"/>
	<rect x="11" y="11" fill="#D7D7D7" width="2" height="2"/>
	<rect x="8" y="11" fill="#D7D7D7" width="2" height="2"/>
	<rect x="5" y="11" fill="#D7D7D7" width="2" height="2"/>
	<rect x="5" y="8" fill="#D7D7D7" width="2" height="2"/>
	<rect x="11" y="8" fill="#D7D7D7" width="2" height="2"/>
	<rect x="8" y="8" fill="#D7D7D7" width="2" height="2"/>
	<path fill="#999999" d="M8,5v2h2V5H8z M11,5v2h2V5H11z M5,5v2h2V5H5z M2,14v2h2v-2H2z M2,11v2h2v-2H2z M2,8v2h2V8H2z M2,5v2h2V5H2z
		"/>
</g>
<g>
	<path fill="#535353" d="M14,34h5l-2.5,3L14,34z"/>
	<rect x="5" y="35" fill="#535353" width="2" height="2"/>
	<rect x="8" y="35" fill="#535353" width="2" height="2"/>
	<rect x="11" y="35" fill="#535353" width="2" height="2"/>
	<rect x="11" y="32" fill="#535353" width="2" height="2"/>
	<rect x="8" y="32" fill="#535353" width="2" height="2"/>
	<rect x="5" y="32" fill="#535353" width="2" height="2"/>
	<rect x="5" y="29" fill="#535353" width="2" height="2"/>
	<rect x="11" y="29" fill="#535353" width="2" height="2"/>
	<rect x="8" y="29" fill="#535353" width="2" height="2"/>
	<path fill="#535353" d="M8,26v2h2v-2H8z M11,26v2h2v-2H11z M5,26v2h2v-2H5z M2,35v2h2v-2H2z M2,32v2h2v-2H2z M2,29v2h2v-2H2z M2,26
		v2h2v-2H2z"/>
</g>
</svg>
