<?xml version="1.0" encoding="utf-8"?>
<!-- Generator: Adobe Illustrator 22.0.1, SVG Export Plug-In . SVG Version: 6.00 Build 0)  -->
<svg version="1.2" baseProfile="tiny" id="Untitled-Page_x25_201"
	 xmlns="http://www.w3.org/2000/svg" xmlns:xlink="http://www.w3.org/1999/xlink" x="0px" y="0px" viewBox="0 0 21 42"
	 xml:space="preserve">
<g>
	<g>
		<g>
			<path fill="#D7D7D7" d="M8,14v2h9v-2H8z M8,10v2h9v-2H8z M8,6v2h9V6H8z"/>
		</g>
	</g>
	<g>
		<path fill="#FF9F0F" d="M3.3,8V7.7H4V5.4L3.4,5.7H3.3V5.4L4.1,5h0.3v2.7h0.6V8H3.3z"/>
	</g>
	<g>
		<path fill="#FF9F0F" d="M3.1,12v-0.4c0.5-0.5,0.9-0.8,1.1-1c0.2-0.2,0.3-0.5,0.3-0.7c0-0.2-0.1-0.3-0.2-0.4S4,9.3,3.9,9.3
			c-0.1,0-0.2,0-0.3,0.1c-0.1,0-0.2,0.1-0.3,0.2H3.2V9.1c0.1,0,0.2-0.1,0.4-0.1c0.1,0,0.3,0,0.4,0c0.3,0,0.5,0.1,0.7,0.2
			c0.2,0.2,0.3,0.4,0.3,0.6c0,0.4-0.2,0.7-0.5,1s-0.7,0.6-0.9,0.8H5V12H3.1z"/>
	</g>
	<g>
		<path fill="#FF9F0F" d="M4.9,15.2c0,0.3-0.1,0.5-0.3,0.6c-0.2,0.2-0.4,0.3-0.7,0.3c-0.2,0-0.3,0-0.5-0.1c-0.1,0-0.3-0.1-0.3-0.1
			v-0.4h0.1c0.1,0.1,0.2,0.1,0.4,0.2c0.1,0,0.2,0,0.3,0c0.2,0,0.3-0.1,0.5-0.2c0.1-0.1,0.2-0.3,0.2-0.4c0-0.2-0.1-0.3-0.2-0.4
			c-0.1-0.1-0.3-0.1-0.6-0.1v-0.3c0.2,0,0.4-0.1,0.5-0.2c0.1-0.1,0.2-0.2,0.2-0.4c0-0.1,0-0.2-0.1-0.3s-0.2-0.1-0.4-0.1
			c-0.1,0-0.2,0-0.3,0c-0.1,0-0.2,0.1-0.3,0.2H3.1v-0.4c0.1,0,0.3-0.1,0.4-0.1c0.1,0,0.3,0,0.4,0c0.3,0,0.5,0.1,0.6,0.2
			c0.2,0.1,0.3,0.3,0.3,0.5c0,0.2-0.1,0.3-0.2,0.5c-0.1,0.1-0.3,0.2-0.5,0.2c0.2,0,0.4,0.1,0.5,0.2C4.8,14.8,4.9,14.9,4.9,15.2z"/>
	</g>
</g>
<g>
	<g>
		<g>
			<path fill="#535353" d="M8,35v2h9v-2H8z M8,31v2h9v-2H8z M8,27v2h9v-2H8z"/>
		</g>
	</g>
	<g>
		<path fill="#535353" d="M3.3,29v-0.3H4v-2.3l-0.6,0.3H3.3v-0.3L4.1,26h0.3v2.7h0.6V29H3.3z"/>
	</g>
	<g>
		<path fill="#535353" d="M3.1,33v-0.4c0.5-0.5,0.9-0.8,1.1-1c0.2-0.2,0.3-0.5,0.3-0.7c0-0.2-0.1-0.3-0.2-0.4S4,30.3,3.9,30.3
			c-0.1,0-0.2,0-0.3,0.1c-0.1,0-0.2,0.1-0.3,0.2H3.2v-0.4c0.1,0,0.2-0.1,0.4-0.1c0.1,0,0.3,0,0.4,0c0.3,0,0.5,0.1,0.7,0.2
			c0.2,0.2,0.3,0.4,0.3,0.6c0,0.4-0.2,0.7-0.5,1s-0.7,0.6-0.9,0.8H5V33H3.1z"/>
	</g>
	<g>
		<path fill="#535353" d="M4.9,36.2c0,0.3-0.1,0.5-0.3,0.6c-0.2,0.2-0.4,0.3-0.7,0.3c-0.2,0-0.3,0-0.5-0.1c-0.1,0-0.3-0.1-0.3-0.1
			v-0.4h0.1c0.1,0.1,0.2,0.1,0.4,0.2c0.1,0,0.2,0,0.3,0c0.2,0,0.3-0.1,0.5-0.2c0.1-0.1,0.2-0.3,0.2-0.4c0-0.2-0.1-0.3-0.2-0.4
			c-0.1-0.1-0.3-0.1-0.6-0.1v-0.3c0.2,0,0.4-0.1,0.5-0.2c0.1-0.1,0.2-0.2,0.2-0.4c0-0.1,0-0.2-0.1-0.3s-0.2-0.1-0.4-0.1
			c-0.1,0-0.2,0-0.3,0c-0.1,0-0.2,0.1-0.3,0.2H3.1v-0.4c0.1,0,0.3-0.1,0.4-0.1c0.1,0,0.3,0,0.4,0c0.3,0,0.5,0.1,0.6,0.2
			c0.2,0.1,0.3,0.3,0.3,0.5c0,0.2-0.1,0.3-0.2,0.5c-0.1,0.1-0.3,0.2-0.5,0.2c0.2,0,0.4,0.1,0.5,0.2C4.8,35.8,4.9,35.9,4.9,36.2z"/>
	</g>
</g>
</svg>
