<?xml version="1.0" encoding="utf-8"?>
<!-- Generator: Adobe Illustrator 22.0.1, SVG Export Plug-In . SVG Version: 6.00 Build 0)  -->
<svg version="1.2" baseProfile="tiny" id="Untitled-Page_x25_201"
	 xmlns="http://www.w3.org/2000/svg" xmlns:xlink="http://www.w3.org/1999/xlink" x="0px" y="0px" viewBox="0 0 21 42"
	 xml:space="preserve">
<path fill="#D7D7D7" d="M15.3,10c0.2-0.3,0.6-0.5,1-0.5S17,9.7,17.2,10h0.2l0.7-0.9c-0.4-0.5-1-1.1-1.9-1.1c-1.1,0-2,0.8-2.4,2H15.3
	z"/>
<path fill="#D7D7D7" d="M16.2,13L16.2,13L16.2,13H14c0.4,0.9,1.2,1.4,2.1,1.4c1,0,1.6-0.6,1.9-1.1L17.8,13H16.2z"/>
<path fill="#D7D7D7" d="M10.5,13L10.5,13L10.5,13H8v1h1v-0.5c1,0.6,1.1,0.9,1.7,0.9c0.8,0,1.6-0.5,2-1.4H10.5z"/>
<path fill="#D7D7D7" d="M8,6v4h1.5c0.2-0.3,0.6-0.5,1-0.5s0.7,0.2,0.9,0.5h1.5c-0.3-1.2-1.2-2-2.2-2C10.1,8,10,8.3,9,9V6"/>
<path fill="#D7D7D7" d="M5.5,13c-0.3,0.2-0.6,0.3-0.9,0.3S4.1,13.2,3.9,13H2.5c0.2,1,1.1,1.4,1.8,1.4c0.6,0,0.7-0.3,1.7-0.8V14h1v-1
	C7,13,5.5,13,5.5,13z"/>
<path fill="#D7D7D7" d="M3.3,10c0.4-0.4,0.8-0.6,1.3-0.6s0.8,0.2,1,0.6h1.3C6.7,8.5,5.8,8,4.8,8C4,8,3.3,8.3,2.7,9l0.4,1H3.3z"/>
<polyline fill="#D7D7D7" points="2,11 19,11 19,12 2,12 "/>
<path fill="#535353" d="M15.3,32c0.2-0.3,0.6-0.5,1-0.5s0.7,0.2,0.9,0.5h0.2l0.7-0.9c-0.4-0.5-1-1.1-1.9-1.1c-1.1,0-2,0.8-2.4,2
	H15.3z"/>
<path fill="#535353" d="M16.2,35L16.2,35L16.2,35H14c0.4,0.9,1.2,1.4,2.1,1.4c1,0,1.6-0.6,1.9-1.1L17.8,35H16.2z"/>
<path fill="#535353" d="M10.5,35L10.5,35L10.5,35H8v1h1v-0.5c1,0.6,1.1,0.9,1.7,0.9c0.8,0,1.6-0.5,2-1.4H10.5z"/>
<path fill="#535353" d="M8,28v4h1.5c0.2-0.3,0.6-0.5,1-0.5s0.7,0.2,0.9,0.5h1.5c-0.3-1.2-1.2-2-2.2-2c-0.6,0-0.7,0.3-1.7,1v-3"/>
<path fill="#535353" d="M5.5,35c-0.3,0.2-0.6,0.3-0.9,0.3S4.1,35.2,3.9,35H2.5c0.2,1,1.1,1.4,1.8,1.4c0.6,0,0.7-0.3,1.7-0.8V36h1v-1
	H5.5z"/>
<path fill="#535353" d="M3.3,32c0.4-0.4,0.8-0.6,1.3-0.6s0.8,0.2,1,0.6h1.3c-0.2-1.5-1.1-2-2.1-2c-0.8,0-1.5,0.3-2.1,1l0.4,1H3.3z"
	/>
<polyline fill="#535353" points="2,33 19,33 19,34 2,34 "/>
</svg>
