<?xml version="1.0" encoding="utf-8"?>
<!-- Generator: Adobe Illustrator 22.0.1, SVG Export Plug-In . SVG Version: 6.00 Build 0)  -->
<svg version="1.2" baseProfile="tiny" id="Untitled-Page_x25_201"
	 xmlns="http://www.w3.org/2000/svg" xmlns:xlink="http://www.w3.org/1999/xlink" x="0px" y="0px" viewBox="0 0 21 42"
	 xml:space="preserve">
<g>
	<path fill="#D7D7D7" d="M8,14v2h9v-2H8z M8,10v2h9v-2H8z M8,6v2h9V6H8z"/>
	<path fill="#FF9F0F" d="M3.5,13.4v2h2v-2H3.5z M3.5,9.4v2h2v-2H3.5z M3.5,5.4v2h2v-2H3.5z"/>
</g>
<g>
	<path fill="#535353" d="M8,35v2h9v-2H8z M8,31v2h9v-2H8z M8,27v2h9v-2H8z"/>
	<rect x="3.5" y="26.4" fill="#535353" width="2" height="2"/>
	<rect x="3.5" y="30.4" fill="#535353" width="2" height="2"/>
	<rect x="3.5" y="34.4" fill="#535353" width="2" height="2"/>
</g>
</svg>
