<?xml version="1.0" encoding="utf-8"?>
<!-- Generator: Adobe Illustrator 22.0.1, SVG Export Plug-In . SVG Version: 6.00 Build 0)  -->
<svg version="1.2" baseProfile="tiny" id="Layer_1" xmlns="http://www.w3.org/2000/svg" xmlns:xlink="http://www.w3.org/1999/xlink"
	 x="0px" y="0px" viewBox="0 0 14 17" xml:space="preserve">
<g id="icons">
	<g>
		<path fill="#D7D7D7" d="M7.4,4L5.6,2H0v12h14V4H7.4z"/>
	</g>
</g>
<g>
	<path d="M10.8,12L8.5,9.6C8.8,9.2,9,8.6,9,8c0-1.7-1.3-3-3-3S3,6.3,3,8s1.3,3,3,3c0.6,0,1.2-0.2,1.7-0.6l2.3,2.4
		c0.1,0.1,0.3,0.2,0.4,0.2c0.1,0,0.3-0.1,0.4-0.2C11,12.6,11,12.2,10.8,12z M6,10c-1.1,0-2-0.9-2-2s0.9-2,2-2s2,0.9,2,2S7.1,10,6,10
		z"/>
</g>
</svg>
