<?xml version="1.0" encoding="utf-8"?>
<!-- Generator: Adobe Illustrator 24.3.0, SVG Export Plug-In . SVG Version: 6.00 Build 0)  -->
<svg version="1.2" baseProfile="tiny" id="Layer_1" xmlns="http://www.w3.org/2000/svg" xmlns:xlink="http://www.w3.org/1999/xlink"
	 x="0px" y="0px" viewBox="0 0 11 17" overflow="visible" xml:space="preserve">
<path fill="#787878" d="M10,3H1C0.4,3,0,3.4,0,4v9c0,0.6,0.4,1,1,1h9c0.6,0,1-0.4,1-1V4C11,3.4,10.6,3,10,3z"/>
<g>
	<path d="M7.1,6.6C6.9,6.4,6.7,6.3,6.5,6.1C6.2,6,5.9,6,5.7,6C5.3,6,5,6.1,4.7,6.2C4.5,6.4,4.3,6.6,4.3,6.9c0,0.5,0.4,0.8,1.2,1
		C6.3,8,6.9,8.3,7.3,8.6C7.8,8.9,8,9.3,8,9.9c0,0.6-0.3,1.2-0.8,1.5C6.7,11.8,6,12,5.2,12c-0.5,0-1-0.1-1.4-0.2
		C3.3,11.6,3,11.4,2.7,11l1-0.8c0.2,0.2,0.4,0.4,0.7,0.5C4.7,10.9,5,11,5.3,11c0.4,0,0.7-0.1,1-0.3s0.4-0.4,0.4-0.7
		c0-0.2-0.1-0.4-0.3-0.6C6.2,9.3,5.9,9.1,5.6,9L4.9,8.8C4.2,8.6,3.7,8.4,3.4,8.1C3.1,7.8,3,7.4,3,7c0-0.6,0.2-1.1,0.8-1.5
		C4.3,5.2,5,5,5.7,5c0.4,0,0.8,0.1,1.2,0.2c0.4,0.1,0.7,0.3,1,0.5L7.1,6.6z"/>
</g>
</svg>
