<?xml version="1.0" encoding="utf-8"?>
<!-- Generator: Adobe Illustrator 22.0.1, SVG Export Plug-In . SVG Version: 6.00 Build 0)  -->
<svg version="1.1" id="Layer_1" xmlns="http://www.w3.org/2000/svg" xmlns:xlink="http://www.w3.org/1999/xlink" x="0px" y="0px"
	 viewBox="0 0 12 17" style="enable-background:new 0 0 12 17;" xml:space="preserve">
	<path fill="#d7d7d7" d="M12,9V7H9.9C9.8,6.6,9.6,6.3,9.4,6l1.5-1.5L9.5,3.1L8,4.6C7.7,4.4,7.4,4.2,7,4.1V2H5v2.1
		C4.6,4.2,4.3,4.4,4,4.6L2.5,3.1L1.1,4.5L2.6,6C2.4,6.3,2.2,6.6,2.1,7H0v2h2.1c0.1,0.4,0.2,0.7,0.4,1l-1.4,1.5l1.4,1.4L4,11.4
		c0.3,0.2,0.7,0.3,1,0.4V14h2v-2.1c0.4-0.1,0.7-0.2,1-0.4L9.5,13l1.4-1.4L9.4,10c0.2-0.3,0.3-0.7,0.4-1H12z M6,10c-1.1,0-2-0.9-2-2
		s0.9-2,2-2s2,0.9,2,2S7.1,10,6,10z"/>
</svg>
