<svg xmlns="http://www.w3.org/2000/svg"	x="0" y="0" viewBox="0 0 15 17">
<path id="XMLID_64_" fill="#232323" d="M8,13.5v-1.7c0-1,0-1.6,1-2c0.3-0.1,0.5-0.2,0.7-0.3l0.2-0.1L10,9.3c0-0.2,0-0.5,0-0.6l0,0
	c0,0,0,0-0.1-0.1C9.5,8.2,9.2,7.5,9.2,7V5.9C9.2,5,10.1,4,11.3,4s2.1,1,2.1,1.9V7c0,0.6-0.3,1.2-0.7,1.7c-0.2,0-0.2,0-0.2,0.1
	c0,0,0,0.3,0.1,0.6c0,0,0,0.1,0.1,0.1l0.9,0.3c1,0.4,1,1,1,2.2v1.5C14.6,13.5,8,13.5,8,13.5z"/>
<path id="XMLID_17_" fill="#505050" d="M11.2,4.5c0.9,0,1.6,0.8,1.6,1.4c0,0.9,0,0.6,0,1.1c0,0.4-0.2,1-0.6,1.3
	c-0.3,0.3-0.3,0.3-0.2,1.2c0,0.2,0.2,0.4,0.4,0.5s0.5,0.2,0.9,0.3C14,10.5,14,10.8,14,12c0,0.2,0,1,0,1H8.5c0,0,0-0.8,0-1
	c0-1.2,0-1.4,0.7-1.7c0.4-0.2,0.7-0.2,0.9-0.3s0.4-0.3,0.4-0.5c0.1-0.8,0.1-0.8-0.2-1.2C9.9,7.9,9.7,7.4,9.7,7s0-0.1,0-1.1
	C9.7,5.3,10.3,4.5,11.2,4.5 M11.2,3.5c-1.5,0-2.6,1.3-2.6,2.4V7c0,0.7,0.3,1.5,0.8,2v0.1c-0.1,0-0.3,0.1-0.6,0.2
	c-1.3,0.5-1.3,1.4-1.3,2.5V13v1h1H14h1v-1v-1c0-1.2,0-2.2-1.3-2.7L13,9.1V9c0.5-0.5,0.8-1.3,0.8-2V5.9C13.8,4.8,12.8,3.5,11.2,3.5
	L11.2,3.5z"/>
<path id="XMLID_16_" fill="#232323" d="M0.5,13c0-1.8,0.1-2.1,1.6-2.8c0.5-0.3,1.5-0.9,1.5-1c0.1-0.5,0-0.6,0-0.7L3.5,8.4
	c-0.1,0-0.2-0.1-0.3-0.2C2.6,7.6,2.5,7,2.5,6.3V5.1c0-1.6,1-2.6,2.5-2.6c1.6,0,2.5,1,2.5,2.6v1.2c0,0.7-0.1,1.3-0.7,1.9
	C6.7,8.3,6.6,8.4,6.5,8.5L6.4,8.6c0,0,0,0.1,0,0.7c0,0.1,0,0.2,0.2,0.3c0.2,0,0.3,0.1,0.4,0.1c0.2,0.1,0.5,0.3,0.8,0.4
	c1.6,0.6,1.6,1,1.6,2.8v0.5H0.5V13z"/>
<path id="XMLID_13_" fill="#787878" d="M5,3c1.2,0,2,0.7,2,2.1c0,0.2,0,1,0,1.2c0,0.6,0,1.1-0.5,1.5C6,8.3,5.8,8.2,5.9,9.3
	c0,0.3,0.2,0.5,0.5,0.7c0.2,0.1,0.6,0.4,1.2,0.6C9,11.1,9,11.3,9,13H1c0-1.6,0-1.8,1.3-2.4c0.6-0.3,0.8-0.4,1.2-0.6S4,9.6,4.1,9.3
	c0.2-1.2-0.1-1-0.6-1.5C3,7.4,3,6.9,3,6.3s0-0.7,0-1.2C3,3.8,3.7,3,5,3 M5,2C3.2,2,2,3.3,2,5.1v1.2C2,7,2.1,7.8,2.8,8.6
	C2.9,8.7,3,8.8,3.1,8.8c0,0.1,0,0.1,0,0.3C2.9,9.2,2.4,9.5,1.9,9.7C0.1,10.5,0,11.2,0,13v1h1h8h1v-1c0-1.9-0.1-2.6-1.9-3.3
	C7.6,9.6,7,9.2,6.9,9.1c0-0.1,0-0.2,0-0.3c0.1,0,0.2-0.1,0.3-0.2C7.9,7.9,8,7.1,8,6.3V5.1C8,3.2,6.9,2,5,2L5,2z"/>
</svg>
