<?xml version="1.0" encoding="utf-8"?>
<!-- Generator: Adobe Illustrator 24.3.0, SVG Export Plug-In . SVG Version: 6.00 Build 0)  -->
<svg version="1.2" baseProfile="tiny" id="Layer_1" xmlns="http://www.w3.org/2000/svg" xmlns:xlink="http://www.w3.org/1999/xlink"
	 x="0px" y="0px" viewBox="0 0 12 17" overflow="visible" xml:space="preserve">
<g id="bg" display="none">
	<rect x="-643" y="-266" display="inline" width="800" height="1362"/>
</g>
<g id="cm" display="none">
	<rect display="inline" fill="#EB9845" width="12" height="12"/>
</g>
<g>
	<rect y="2" fill="none" width="12" height="12"/>
	<g display="none">
		<polygon display="inline" fill="#E61E3C" points="3.72,13.5 0.5,10.28 0.5,5.72 3.72,2.5 8.28,2.5 11.5,5.72 11.5,10.28 
			8.28,13.5 		"/>
		<path display="inline" fill="#FFFFFF" d="M8.07,3L11,5.93v4.14L8.07,13H3.93L1,10.07V5.93L3.93,3H8.07 M8.49,2H3.51L0,5.51v4.97
			L3.51,14h4.97L12,10.49V5.51L8.49,2L8.49,2z"/>
	</g>
	<g>
		<polygon fill="#E61E3C" points="3.72,13.5 0.5,10.28 0.5,5.72 3.72,2.5 8.28,2.5 11.5,5.72 11.5,10.28 8.28,13.5 		"/>
		<path fill="#FFFFFF" d="M8.07,3L11,5.93v4.14L8.07,13H3.93L1,10.07V5.93L3.93,3H8.07 M8.49,2H3.51L0,5.51v4.97L3.51,14h4.97
			L12,10.49V5.51L8.49,2L8.49,2z"/>
	</g>
</g>
</svg>
