<?xml version="1.0" encoding="utf-8"?>
<!-- Generator: Adobe Illustrator 24.3.0, SVG Export Plug-In . SVG Version: 6.00 Build 0)  -->
<svg version="1.1" id="Layer_1" xmlns="http://www.w3.org/2000/svg" xmlns:xlink="http://www.w3.org/1999/xlink" x="0px" y="0px"
	 viewBox="0 0 9 17" style="enable-background:new 0 0 9 17;" xml:space="preserve">
<style type="text/css">
	.st0{fill:#D7D7D7;}
</style>
<path class="st0" d="M8,3H7v2H2V3H1C0.4,3,0,3.4,0,4v9c0,0.6,0.4,1,1,1h7c0.6,0,1-0.4,1-1V4C9,3.4,8.6,3,8,3z M3,12H2v-1h1V12z
	 M3,10H2V9h1V10z M3,8H2V7h1V8z M7,12H4v-1h3V12z M7,10H4V9h3V10z M7,8H4V7h3V8z"/>
<rect x="3" y="2" class="st0" width="3" height="2"/>
</svg>
