<?xml version="1.0" encoding="utf-8"?>
<!-- Generator: Adobe Illustrator 22.0.1, SVG Export Plug-In . SVG Version: 6.00 Build 0)  -->
<svg version="1.2" baseProfile="tiny" id="Layer_2" xmlns="http://www.w3.org/2000/svg" xmlns:xlink="http://www.w3.org/1999/xlink"
	 x="0px" y="0px" viewBox="0 0 21 84.1" xml:space="preserve">
<polygon fill="#BFBFBF" points="15.5,7 14,5.6 10.8,8.9 7.5,5.6 6.1,7 9.4,10.3 6.1,13.5 7.5,15 10.8,11.7 14,15 15.5,13.5 
	12.2,10.3 "/>
<polygon fill="#F1F1F1" points="15.5,28 14,26.6 10.8,29.9 7.5,26.6 6.1,28 9.4,31.3 6.1,34.5 7.5,36 10.8,32.7 14,36 15.5,34.5 
	12.2,31.3 "/>
<polygon fill="#D8D8D8" points="15.5,49 14,47.6 10.8,50.9 7.5,47.6 6.1,49 9.4,52.3 6.1,55.5 7.5,57 10.8,53.7 14,57 15.5,55.5 
	12.2,52.3 "/>
<polygon points="15.5,70 14,68.6 10.8,71.9 7.5,68.6 6.1,70 9.4,73.3 6.1,76.5 7.5,78 10.8,74.7 14,78 15.5,76.5 12.2,73.3 "/>
</svg>
