<?xml version="1.0" encoding="utf-8"?>
<!-- Generator: Adobe Illustrator 24.3.0, SVG Export Plug-In . SVG Version: 6.00 Build 0)  -->
<svg version="1.2" baseProfile="tiny" id="Layer_1" xmlns="http://www.w3.org/2000/svg" xmlns:xlink="http://www.w3.org/1999/xlink"
	 x="0px" y="0px" viewBox="0 0 21 17" overflow="visible" xml:space="preserve">
<g id="axe--dense">
	<g id="Group" transform="translate(0.000000, 2.000000)">
		<path id="Rectangle" fill-rule="evenodd" fill="#00E6FF" d="M1,0h19c0.6,0,1,0.4,1,1v11c0,0.6-0.4,1-1,1H1c-0.6,0-1-0.4-1-1V1
			C0,0.4,0.4,0,1,0z"/>
	</g>
</g>
<g>
	<path d="M5.9,7.1v4.2H4.6V7.1H2.8V6h5v1.1H5.9z"/>
	<path d="M11.3,11.2L11,10H9.1l-0.4,1.2H7.5L9.1,6h2l1.6,5.2H11.3z M10.1,6.9L9.4,9h1.2L10.1,6.9z"/>
	<path d="M17.9,7.8c0,0.3-0.1,0.5-0.2,0.8S17.5,9,17.3,9.1s-0.4,0.3-0.7,0.4s-0.6,0.1-0.9,0.1h-1.1v1.6h-1.3V6h2.4
		c0.3,0,0.6,0,0.9,0.1c0.3,0.1,0.5,0.2,0.7,0.3s0.3,0.3,0.4,0.6S17.9,7.5,17.9,7.8z M16.6,7.8c0-0.1,0-0.2-0.1-0.3
		c0-0.1-0.1-0.2-0.2-0.2S16.1,7.2,16,7.1s-0.3,0-0.5,0h-0.8v1.5h0.8c0.2,0,0.4,0,0.5-0.1s0.3-0.1,0.4-0.2c0.1-0.1,0.2-0.2,0.2-0.2
		C16.6,8,16.6,7.9,16.6,7.8z"/>
</g>
</svg>
