<?xml version="1.0" encoding="utf-8"?>
<!-- Generator: Adobe Illustrator 22.0.1, SVG Export Plug-In . SVG Version: 6.00 Build 0)  -->
<svg version="1.2" baseProfile="tiny" id="Layer_1" xmlns="http://www.w3.org/2000/svg" xmlns:xlink="http://www.w3.org/1999/xlink"
	 x="0px" y="0px" viewBox="0 0 22 17" xml:space="preserve">
<path fill="#D7D7D7" d="M1.5,2h8.4c0.3,0,0.5,0.2,0.5,0.5v7c0,0.3-0.2,0.5-0.5,0.5H1.5C1.2,10,1,9.8,1,9.5v-7C1,2.2,1.2,2,1.5,2z
	 M12,2h8.4C20.8,2,21,2.2,21,2.5v7c0,0.3-0.2,0.5-0.5,0.5H12c-0.3,0-0.5-0.2-0.5-0.5v-7C11.5,2.2,11.8,2,12,2z M9.9,12.1L9.9,12.1
	l0,0.7c0,0.2,0.4,0.5,0.9,0.5c0.5,0,0.9-0.2,0.9-0.5v-0.7l0,0c1.5,0.2,2.5,0.7,2.5,1.4c0,0.8-1.6,1.5-3.5,1.5s-3.5-0.7-3.5-1.5
	C7.4,12.8,8.5,12.2,9.9,12.1z"/>
</svg>
