<svg xmlns="http://www.w3.org/2000/svg" x="0" y="0" viewBox="0 0 12 17">
<g id="_Group__1_">
	<path fill="#787878" d="M6.8,6.7L6.8,6.7L6.3,8h4.4c0.1,0,0.2,0,0.3,0v0.1l-0.1,0.3c-0.4,1.2-1,2.4-1.6,3.6
		c-0.2,0.3-0.3,0.6-0.3,0.8L8.9,13H6v-1H5V8.4L6.8,6.7L6.8,6.7 M7,3L6,6L4,8v5h1c0,0.5,0.4,1,0.9,1c0,0,0.1,0,0.1,0h3
		c0.8,0,0.7-0.5,1.2-1.5c0.7-1.3,1.2-2.6,1.7-4c0.4-1-0.2-1.5-1.2-1.5h-3c0,0,0.3-0.9,0.6-2S8.3,3,7,3z"/>
</g>
<g id="_Group_2">
	<path fill="#787878" d="M2,8v5H1V8H2 M3,7H0v7h3V7z"/>
</g>
</svg>
