<?xml version="1.0" encoding="utf-8"?>
<!-- Generator: Adobe Illustrator 22.0.1, SVG Export Plug-In . SVG Version: 6.00 Build 0)  -->
<svg version="1.2" baseProfile="tiny" id="icons" xmlns="http://www.w3.org/2000/svg" xmlns:xlink="http://www.w3.org/1999/xlink"
	 x="0px" y="0px" viewBox="0 0 10 17" xml:space="preserve">
<path fill="#FFFFFF" d="M9,4.8C9,3.8,8.2,3,7.2,3l0,0H2.8C1.8,3,1,3.8,1,4.8V12h1.5l-1.4,2.2C1,14.4,1,14.7,1.3,14.9
	C1.5,15,1.8,15,2,14.8L2.4,14h5.2l0.5,0.8c0.2,0.2,0.5,0.3,0.7,0.1c0.2-0.1,0.3-0.4,0.1-0.7L7.5,12H9V4.8z M2,10V5h2v5H2z M7,13.1H3
	l0.6-1h2.7L7,13.1z M8,10H6V5h2V10z"/>
</svg>
