<?xml version="1.0" encoding="utf-8"?>
<!-- Generator: Adobe Illustrator 24.3.0, SVG Export Plug-In . SVG Version: 6.00 Build 0)  -->
<svg version="1.1" id="icons" xmlns="http://www.w3.org/2000/svg" xmlns:xlink="http://www.w3.org/1999/xlink" x="0px" y="0px"
	 viewBox="0 0 12 17" style="enable-background:new 0 0 12 17;" xml:space="preserve">
<style type="text/css">
	.st0{fill:#D7D7D7;}
</style>
<path class="st0" d="M10.5,6H8V3.5C8,2.7,7.3,2,6.5,2H1.5C0.7,2,0,2.7,0,3.5v5.1C0,9.3,0.7,10,1.5,10H4v2.5C4,13.3,4.7,14,5.5,14
	h5.1c0.8,0,1.5-0.7,1.5-1.5l0,0V7.5C12,6.7,11.3,6,10.5,6z M1.5,9C1.2,9,1,8.8,1,8.5V3.5C1,3.2,1.2,3,1.5,3l0,0h5.1
	C6.8,3,7,3.2,7,3.5V6H5.5C5.3,6,5.2,6,5,6.1c0.1-0.3,0.2-0.6,0.2-0.9h0.6V4.6H4.3V4H3.7v0.6H2.2v0.6h2.5C4.6,5.7,4.4,6.1,4,6.5
	C3.7,6.2,3.6,5.9,3.5,5.6L2.9,5.8C3,6.2,3.2,6.5,3.5,6.8C3.1,7.1,2.6,7.2,2.2,7.2v0.6c0.7,0,1.3-0.2,1.8-0.6l0,0c0,0.1,0,0.2,0,0.2
	V9H1.5z"/>
<path d="M9,12.1h1.2L8.6,7.6H7.4L5.8,12H7l0.3-0.7h1.5L9,12.1z M7.6,10.4L8,9.2l0.4,1.2H7.6z"/>
</svg>
