<?xml version="1.0" encoding="utf-8"?>
<!-- Generator: Adobe Illustrator 17.0.2, SVG Export Plug-In . SVG Version: 6.00 Build 0)  -->
<svg version="1.2" baseProfile="tiny" xmlns="http://www.w3.org/2000/svg" xmlns:xlink="http://www.w3.org/1999/xlink" x="0px"
	 y="0px" width="57px" height="57px" viewBox="0 0 57 57" xml:space="preserve">
<g id="Layer_1">
	<g id="Layer_4">
		<path fill="#FFFFFF" stroke="#FFFFFF" d="M36.7,9L36.7,9h1h1l0.8,0.2c0.5,0.1,1,0.2,1.4,0.4s0.8,0.3,1.2,0.6
			c0.4,0.2,0.7,0.4,1.1,0.7c0.3,0.2,0.6,0.5,0.8,0.7s0.6,0.3,1.2,0.2c0.5-0.1,1.1-0.3,1.7-0.5c0.6-0.2,1.2-0.5,1.8-0.7
			c0.6-0.3,0.9-0.4,1.1-0.5C49.9,10,50,10,50,10l0,0l0,0l0,0l0,0l0,0l0,0l0,0l0,0l0,0l0,0l0,0v0.1v0.1v0.1v0.1l0,0l0,0v0.1
			c0,0,0,0.1,0,0.2c0,0.1-0.1,0.3-0.4,0.8s-0.5,0.9-0.9,1.4s-0.7,0.8-1,1.1c-0.3,0.2-0.5,0.4-0.6,0.5s-0.2,0.2-0.3,0.3l-0.2,0.1l0,0
			l0,0l0,0l0,0l0,0l0,0l0,0l0,0l0,0l0,0l0,0l0,0l0,0l0,0l0,0l0,0h0.1h0.1l1.1-0.2c0.7-0.2,1.5-0.4,2.1-0.6c0.7-0.2,1-0.3,1.1-0.4
			h0.1h0.1l0,0l0,0l0,0l0,0h0.1h0.1l0,0l0,0l0,0l0,0l0,0l0,0l0,0l0,0l0,0l0,0l0,0l0,0l0,0l0,0l0,0l0,0l0,0c0,0-0.2,0.2-0.5,0.7
			c-0.3,0.4-0.5,0.7-0.5,0.7s-0.1,0-0.1,0.1s-0.3,0.4-0.8,0.9s-1,1-1.5,1.4s-0.8,0.9-0.8,1.5s0,1.3-0.1,2s-0.2,1.6-0.3,2.4
			c-0.1,0.9-0.4,1.9-0.7,2.9c-0.3,1.1-0.7,2.2-1.1,3.2c-0.4,1-0.9,2-1.4,2.8c-0.5,0.8-0.9,1.5-1.3,2.1s-0.8,1.1-1.2,1.6
			s-0.9,1.1-1.6,1.7c-0.6,0.6-1,1-1,1c-0.1,0.1-0.3,0.3-0.8,0.7s-1,0.8-1.5,1.1c-0.5,0.4-1,0.7-1.5,1c-0.4,0.3-1,0.5-1.6,0.9
			c-0.6,0.3-1.3,0.6-2,0.9c-0.7,0.3-1.5,0.5-2.3,0.8c-0.8,0.2-1.6,0.4-2.3,0.6c-0.7,0.1-1.6,0.2-2.5,0.3l-1.4,0.1l0,0l0,0H21h-1.3
			l0,0l0,0h-0.3c-0.2,0-0.4,0-0.6,0c-0.1,0-0.7-0.1-1.7-0.2s-1.7-0.3-2.3-0.4c-0.5-0.1-1.4-0.4-2.4-0.8s-2-0.8-2.8-1.1
			c-0.8-0.4-1.2-0.6-1.4-0.7c-0.2-0.1-0.4-0.2-0.6-0.4l-0.4-0.2l0,0l0,0l0,0l0,0l0,0l0,0l0,0l0,0l0,0l0,0l0,0l0,0l0,0l0,0l0,0l0,0
			l0,0l0,0h0.2c0.1,0,0.4,0,1,0.1c0.5,0,1.1,0,1.7,0c0.6,0,1.2-0.1,1.8-0.2c0.6-0.1,1.4-0.3,2.2-0.5c0.9-0.2,1.6-0.5,2.4-0.8
			c0.7-0.3,1.2-0.6,1.5-0.7c0.3-0.2,0.8-0.4,1.4-0.8l0.9-0.6l0,0l0,0l0,0l0,0l0,0l0,0l0,0l0,0l0,0l0,0l0,0l0,0l0,0l0,0H20
			c-0.2,0-0.4,0-0.6,0s-0.5-0.1-0.9-0.2c-0.4-0.1-0.9-0.3-1.4-0.5s-1-0.5-1.4-0.8c-0.5-0.3-0.8-0.5-1-0.7s-0.5-0.5-0.8-0.8
			c-0.3-0.4-0.6-0.7-0.8-1.1s-0.5-0.8-0.7-1.3L12,31.1V31v-0.1l0,0l0,0h0.1h0.1l0.4,0.1c0.3,0,0.8,0.1,1.4,0c0.6,0,1.1,0,1.3-0.1
			s0.4-0.1,0.4-0.1h0.1h0.1H16l0,0l0,0l0,0l0,0h-0.1h-0.1h-0.1h-0.1h-0.1c-0.1,0-0.1,0-0.3-0.1c-0.1,0-0.5-0.2-1.1-0.4
			c-0.6-0.3-1.1-0.5-1.4-0.7c-0.3-0.2-0.7-0.5-1-0.8s-0.7-0.7-1-1.1c-0.4-0.5-0.7-1-1-1.6S9.2,24.9,9,24.4c-0.1-0.5-0.2-1.1-0.3-1.7
			l-0.1-0.8l0,0l0,0l0,0l0,0l0,0l0,0l1,0.1c0.4,0.2,0.9,0.3,1.5,0.5c0.6,0.1,1,0.2,1.1,0.2h0.2h0.2h0.2l0,0l0,0l0,0l0,0l0,0l0,0l0,0
			l0,0l0,0l0,0l0,0l0,0l0,0l0,0l0,0l0,0l0,0c0,0-0.1-0.1-0.3-0.3c-0.2-0.2-0.4-0.4-0.7-0.7c-0.2-0.3-0.5-0.5-0.7-0.8
			s-0.5-0.6-0.6-0.9c-0.2-0.3-0.4-0.8-0.6-1.3c-0.2-0.5-0.4-1-0.5-1.6c-0.1-0.5-0.2-1-0.2-1.5s0-0.9,0-1.3c0-0.4,0.1-0.8,0.2-1.2
			c0.1-0.5,0.3-0.9,0.5-1.4l0.3-0.8v-0.1v-0.1l0,0l0,0l0,0l0,0l0,0l0,0l0,0l0,0l0,0l0,0l0,0l0,0l0,0l0,0l0,0l0,0l0.5,0.6
			c0.4,0.4,0.8,0.8,1.3,1.3s0.8,0.8,0.8,0.8c0.1,0,0.1,0.1,0.2,0.2c0.1,0.1,0.3,0.3,0.8,0.7s1,0.8,1.8,1.3c0.7,0.5,1.6,1,2.4,1.5
			c0.9,0.5,1.9,0.9,2.9,1.3s1.8,0.6,2.2,0.8c0.4,0.1,1.1,0.3,2.1,0.5s1.8,0.3,2.3,0.4s0.9,0.1,1,0.1h0.3v-0.1V20l-0.1-0.5
			c-0.1-0.3-0.1-0.8-0.1-1.4s0-1.2,0.1-1.7s0.2-1,0.4-1.5c0.2-0.5,0.4-0.9,0.5-1.3c0.2-0.3,0.4-0.7,0.7-1.1c0.3-0.4,0.7-0.8,1.1-1.2
			c0.5-0.4,1-0.8,1.6-1.1s1.2-0.6,1.7-0.8s0.9-0.3,1.3-0.3C36.5,9,36.7,9,36.7,9z"/>
	</g>
	<g id="_x33_X_Square_Icon__x2014__42x42__x28_14x14_x29_" display="none">
		<path display="inline" fill="#EC008B" d="M49,7v40H9V7H49 M50,6H8v42h42V6L50,6z"/>
	</g>
	<g id="_x33_X_Circle_Icon__x2014__45x45__x28_15x15_x29_" display="none">
		<path display="inline" fill="#EC008B" d="M28.5,5C40.4,5,50,14.6,50,26.5S40.4,48,28.5,48S7,38.4,7,26.5S16.6,5,28.5,5 M28.5,4
			C16.1,4,6,14.1,6,26.5S16.1,49,28.5,49S51,38.9,51,26.5S40.9,4,28.5,4L28.5,4z"/>
	</g>
	<g id="Instructions" display="none">
		<rect x="62" y="2" display="inline" fill="none" width="201.5" height="144"/>
		
			<text transform="matrix(1 0 0 1 62 9.3169)" display="inline" fill="#EC008B" font-family="'BloombergPropUnicodeJ'" font-size="9">• There is a layer for square icons </text>
		
			<text transform="matrix(1 0 0 1 62 20.1167)" display="inline" fill="#EC008B" font-family="'BloombergPropUnicodeJ'" font-size="9">   and a layer for circle icons</text>
		
			<text transform="matrix(1 0 0 1 62 41.7168)" display="inline" fill="#EC008B" font-family="'BloombergPropUnicodeJ'" font-size="9">• The icon design can utilize the space </text>
		
			<text transform="matrix(1 0 0 1 62 52.5166)" display="inline" fill="#EC008B" font-family="'BloombergPropUnicodeJ'" font-size="9">   within the square or circle INCLUDING </text>
		
			<text transform="matrix(1 0 0 1 62 63.3164)" display="inline" fill="#EC008B" font-family="'BloombergPropUnicodeJ'" font-size="9">   the outline</text>
		
			<text transform="matrix(1 0 0 1 62 84.917)" display="inline" fill="#EC008B" font-family="'BloombergPropUnicodeJ'" font-size="9">• The position of the square and circle in </text>
		
			<text transform="matrix(1 0 0 1 62 95.7168)" display="inline" fill="#EC008B" font-family="'BloombergPropUnicodeJ'" font-size="9">   the document are how they should sit</text>
		
			<text transform="matrix(1 0 0 1 62 106.5166)" display="inline" fill="#EC008B" font-family="'BloombergPropUnicodeJ'" font-size="9">   ultimately on a 19px grid </text>
		
			<text transform="matrix(1 0 0 1 62 128.1172)" display="inline" fill="#EC008B" font-family="'BloombergPropUnicodeJ'" font-size="9">• To finalize, turn off outlines and output file</text>
	</g>
</g>
<g id="Layer_2" display="none">
	<path display="inline" fill="#EC008B" d="M49,7v40H9V7H49 M50,6H8v42h42V6L50,6z"/>
</g>
<g id="Layer_3" display="none">
	<path display="inline" fill="#00C3CC" d="M29,6c11.6,0,21,9.4,21,21s-9.4,21-21,21S8,38.6,8,27S17.4,6,29,6 M29,5
		C16.8,5,7,14.8,7,27s9.8,22,22,22s22-9.8,22-22S41.2,5,29,5L29,5z"/>
</g>
</svg>
