<?xml version="1.0" encoding="utf-8"?>
<!-- Generator: Adobe Illustrator 24.3.0, SVG Export Plug-In . SVG Version: 6.00 Build 0)  -->
<svg version="1.2" baseProfile="tiny" id="Layer_1" xmlns="http://www.w3.org/2000/svg" xmlns:xlink="http://www.w3.org/1999/xlink"
	 x="0px" y="0px" viewBox="0 0 14 17" overflow="visible" xml:space="preserve">
<polygon fill="#66ABFF" points="13,1 1,1 1,2 13,2 13,13 14,13 14,1 "/>
<g>
	<path fill="#66ABFF" d="M0,5v8c0,1.1,0.9,2,2,2h8c1.1,0,2-0.9,2-2V5c0-1.1-0.9-2-2-2H2C0.9,3,0,3.9,0,5z M3.3,5.8l1.1,4.9l1.3-4
		h0.9l1.3,4L9,5.8h1L8.3,12H7.4L6.1,8l-1.3,4H3.9L2.2,5.8H3.3z"/>
	<polygon stroke="#000000" stroke-width="0.25" stroke-miterlimit="10" points="4.8,12 6.1,8 7.4,12 8.3,12 10,5.8 9,5.8 8,10.7 
		6.6,6.7 5.7,6.7 4.5,10.7 3.3,5.8 2.2,5.8 3.9,12 	"/>
</g>
</svg>
