<?xml version="1.0" encoding="utf-8"?>
<!-- Generator: Adobe Illustrator 24.3.0, SVG Export Plug-In . SVG Version: 6.00 Build 0)  -->
<svg version="1.1" id="Layer_1" xmlns="http://www.w3.org/2000/svg" xmlns:xlink="http://www.w3.org/1999/xlink" x="0px" y="0px"
	 viewBox="0 0 12 17" style="enable-background:new 0 0 12 17;" xml:space="preserve">
<style type="text/css">
	.st0{fill:#66ABFF;}
	.st1{stroke:#000000;stroke-width:0.25;stroke-miterlimit:10;}
</style>
<g>
	<path class="st0" d="M0,4v8c0,1.1,0.9,2,2,2h8c1.1,0,2-0.9,2-2V4c0-1.1-0.9-2-2-2H2C0.9,2,0,2.9,0,4z M3.3,4.8l1.1,4.9l1.3-4h0.9
		l1.3,4L9,4.8h1L8.3,11H7.4L6.1,7l-1.3,4H3.9L2.2,4.8H3.3z"/>
	<polygon class="st1" points="4.8,11 6.1,7 7.4,11 8.3,11 10,4.8 9,4.8 8,9.7 6.6,5.7 5.7,5.7 4.5,9.7 3.3,4.8 2.2,4.8 3.9,11 	"/>
</g>
</svg>
