<?xml version="1.0" encoding="utf-8"?>
<!-- Generator: Adobe Illustrator 24.3.0, SVG Export Plug-In . SVG Version: 6.00 Build 0)  -->
<svg version="1.2" baseProfile="tiny" id="Layer_1" xmlns="http://www.w3.org/2000/svg" xmlns:xlink="http://www.w3.org/1999/xlink"
	 x="0px" y="0px" viewBox="0 0 13 17" overflow="visible" xml:space="preserve">
<g>
	<polygon fill="#FA5A28" points="10.3,3.6 10.3,3.6 11.7,5.1 11.7,5.1 13,6.6 13,2 8.8,2 	"/>
	<g>
		<path fill="#D7D7D7" d="M8.5,3H2C0.9,3,0,3.9,0,5v8c0,1.1,0.9,2,2,2h8c1.1,0,2-0.9,2-2V6.8L8.5,3z"/>
	</g>
</g>
<g>
	<path d="M2,6h0.99l0.98,4.26h0.02L5.2,6h0.68l1.2,4.26H7.1L8.08,6h0.99l-1.55,6H6.73L5.55,7.67H5.53L4.34,12H3.55L2,6z"/>
</g>
</svg>
