<?xml version="1.0" encoding="UTF-8" standalone="no"?>

<svg
   xmlns:dc="http://purl.org/dc/elements/1.1/"
   xmlns:cc="http://creativecommons.org/ns#"
   xmlns:rdf="http://www.w3.org/1999/02/22-rdf-syntax-ns#"
   xmlns:svg="http://www.w3.org/2000/svg"
   xmlns="http://www.w3.org/2000/svg"
   xmlns:sodipodi="http://sodipodi.sourceforge.net/DTD/sodipodi-0.dtd"
   version="1.1"
   id="Layer_1"
   x="0px"
   y="0px"
   viewBox="0 0 96.099998 476.39999"
   enable-background="new 0 0 1296 1296"
   xml:space="preserve"
   sodipodi:docname="watermark.svg"
   width="96.099998"
   height="476.39999"><metadata
     id="metadata27"><rdf:RDF><cc:Work
         rdf:about=""><dc:format>image/svg+xml</dc:format><dc:type
           rdf:resource="http://purl.org/dc/dcmitype/StillImage" /><dc:title></dc:title></cc:Work></rdf:RDF></metadata><defs
     id="defs25" /><sodipodi:namedview
     pagecolor="#ffffff"
     bordercolor="#666666"
     borderopacity="1"
     objecttolerance="10"
     gridtolerance="10"
     guidetolerance="10"
     id="namedview23"
     showgrid="false"
     fit-margin-top="0"
     fit-margin-left="0"
     fit-margin-right="0"
     fit-margin-bottom="0"/><g
     id="g3"
     transform="translate(-619.5,-293.2)"><path
       d="m 671.5,717.5 c -9.1,0 -16,6.4 -17,15.2 l -0.2,0 c -2.2,-7.3 -7.5,-12.2 -15.4,-12.2 -12.8,0 -17.7,10.9 -17.7,21.6 l 0,27.5 70.5,0 0,-25.4 c -0.1,-13.4 -4.8,-26.7 -20.2,-26.7 z m -21.7,39.5 -17.9,0 0,-10.4 c 0,-9.5 3,-13.6 9.1,-13.6 5.3,0 8.9,4.2 8.9,12.5 l 0,11.5 z m 31.1,0 -20.3,0 0,-12 c 0,-10.2 2.6,-14.9 10,-14.9 9.3,0 10.4,9 10.4,15.4 l 0,11.5 z"
       id="path5" /><rect
       x="619.5"
       y="697.40002"
       width="72.099998"
       height="11.9"
       id="rect7" /><path
       d="m 667.8,637.4 c -15,0 -25.1,11.5 -25.1,26 0,14.4 10.1,26 25.1,26 15,0 25.1,-11.5 25.1,-26 -0.1,-14.4 -10.1,-26 -25.1,-26 z m 0,40 c -7.5,0 -14.3,-5.3 -14.3,-14 0,-8.8 6.9,-14 14.3,-14 7.5,0 14.3,5.3 14.3,14 0,8.8 -6.9,14 -14.3,14 z"
       id="path9" /><path
       d="m 667.8,580.1 c -15,0 -25.1,11.5 -25.1,26 0,14.4 10.1,26 25.1,26 15,0 25.1,-11.5 25.1,-26 -0.1,-14.5 -10.1,-26 -25.1,-26 z m 0,40 c -7.5,0 -14.3,-5.3 -14.3,-14 0,-8.8 6.9,-14 14.3,-14 7.5,0 14.3,5.3 14.3,14 0,8.7 -6.9,14 -14.3,14 z"
       id="path11" /><path
       d="m 642.7,546.6 c 0,8 4.2,12.5 8.7,14.6 l 0,0.2 -7.5,0 0,11.3 47.8,0 0,-11.9 -26.1,0 c -6.4,0 -12.1,-3.1 -12.1,-10.9 0,-5.8 3.9,-8.2 9.8,-8.2 l 28.5,0 0,-11.9 -25.9,0 c -6.2,0 -12.3,-2.8 -12.3,-10.3 0,-7.1 5.2,-8.9 11.1,-8.9 l 27.1,0 0,-11.9 -28.5,0 c -11.4,0 -20.5,4.5 -20.5,17.2 0,7.2 2.8,12.2 8.9,15.7 -6.1,2.6 -9,7.6 -9,15 z"
       id="path13" /><path
       d="m 667.8,437.5 c -14.1,0 -25.1,9.5 -25.1,23.1 0,9 4.2,13.7 7.3,16.2 l 0,0.3 -30.4,0 0,11.9 72.1,0 0,-11.3 -7.2,0 0,-0.2 c 5.8,-3.5 8.4,-9.8 8.4,-16.4 -0.1,-14.7 -11,-23.6 -25.1,-23.6 z m 0,40 c -7.5,0 -14.3,-5.3 -14.3,-14 0,-8.8 6.9,-14 14.3,-14 7.5,0 14.3,5.3 14.3,14 0,8.7 -6.9,14 -14.3,14 z"
       id="path15" /><path
       d="m 683.3,385.9 -6.5,8.6 c 3.7,3 6.5,6.9 6.5,12.8 0,6.7 -4.3,12 -11.3,12.8 l 0,-36.4 -3.3,0 c -16.6,0 -26,9.1 -26,22.4 0,14.4 10.1,26 25.1,26 15,0 25.1,-11.5 25.1,-26 -0.1,-7.6 -2.7,-14.6 -9.6,-20.2 z M 663,420.1 c -6.9,-0.9 -11.3,-5.3 -11.3,-12.3 0,-7.5 4.4,-12 11.3,-12.1 l 0,24.4 z"
       id="path17" /><path
       d="m 643.4,345.4 c -0.4,1.4 -0.7,2.8 -0.7,4.3 0,6.3 3.3,11.5 8.8,14.1 l 0,0.2 -7.6,0 0,11.9 47.8,0 0,-11.9 -25.6,0 c -2.6,0 -12,-1.6 -12,-12.8 0,-1.9 0.4,-3.8 0.9,-5.8 l -11.6,0 z"
       id="path19" /><path
       d="m 687.4,293.2 -43.5,0 0,11.3 7.2,0 0,0.2 c -5.8,3.5 -8.4,9.8 -8.4,16.4 0,14.7 11,23.6 25.1,23.6 13.5,0 24.5,-9.5 24.5,-23.8 0,-6 -2.3,-12.1 -7,-15.6 l 0,-0.2 3.5,0 c 9.5,0 16,3.6 16,15.1 0,6.7 -2.5,11.6 -6.9,16.4 l 9.8,7.2 c 6,-6.8 7.9,-14.8 7.9,-23.7 -0.1,-18.6 -11,-26.9 -28.2,-26.9 z m -19.7,39.6 c -8.5,0 -14.2,-5.8 -14.2,-14.1 0,-8.7 5.8,-14.1 14,-14.1 8,0 14,5.4 14,14.2 0,8 -6.3,14 -13.8,14 z"
       id="path21" /></g></svg>
