<?xml version="1.0" encoding="utf-8"?>
<!-- Generator: Adobe Illustrator 17.0.2, SVG Export Plug-In . SVG Version: 6.00 Build 0)  -->
<svg version="1.2" baseProfile="tiny" xmlns="http://www.w3.org/2000/svg" xmlns:xlink="http://www.w3.org/1999/xlink" x="0px"
	 y="0px" width="57px" height="57px" viewBox="0 0 57 57" xml:space="preserve">
<g id="Layer_4">
	<g>
		<path fill="#D7D7D7" d="M18,7.9C21.4,6,25,5,29,5s7.7,1,11,2.9s6,4.7,8,8c2,3.5,3,7.2,3,11.1s-1,7.7-2.9,11c-1.9,3.4-4.7,6-8,8
			c-3.4,2.1-7.1,3-11.1,3s-7.7-1-11-2.9s-6-4.7-8-8C8,34.7,7,31,7,27s1-7.7,2.9-11C12,12.6,14.6,9.9,18,7.9z M37,19.9
			c0,0-0.1,0.1-0.3,0.3c-0.1,0.2-0.3,0.3-0.4,0.3c0,0,0.1,0,0.1-0.1s0.1-0.2,0.1-0.3c0-0.1,0.1-0.2,0.1-0.2c0.1-0.1,0.3-0.3,0.7-0.4
			c0.3-0.1,0.8-0.2,1.5-0.4c0.7-0.2,1.2,0,1.5,0.3c0,0,0.1-0.2,0.3-0.4c0.2-0.2,0.4-0.3,0.4-0.4c0.1,0,0.2-0.1,0.4-0.1
			s0.4-0.1,0.4-0.2l0.1-0.7c-0.2,0-0.4,0-0.5-0.2S41,17.1,41,16.9c0,0-0.1,0.1-0.2,0.2c0-0.1,0-0.2-0.1-0.2s-0.2,0-0.3,0
			s-0.2,0-0.3,0c-0.2-0.1-0.3-0.1-0.4-0.2c-0.1-0.1-0.2-0.3-0.2-0.5c-0.1-0.2-0.1-0.4-0.1-0.4c0-0.1-0.1-0.2-0.3-0.3
			c-0.1-0.1-0.2-0.2-0.3-0.3c0,0,0-0.1-0.1-0.2c0-0.1-0.1-0.1-0.1-0.2c0-0.1-0.1-0.1-0.1-0.2c0,0-0.1-0.1-0.2-0.1s-0.1,0-0.2,0.1
			c-0.1,0.1-0.2,0.2-0.2,0.3c0,0.1,0,0.1,0,0.1c-0.1,0-0.1-0.1-0.2,0c-0.1,0-0.1,0-0.1,0s-0.1,0-0.1,0.1c-0.1,0-0.1,0.1-0.1,0.1
			c-0.1,0-0.1,0.1-0.3,0.1c-0.1,0-0.2,0-0.3,0.1c0.3-0.1,0.3-0.2,0-0.3c-0.2,0-0.4,0-0.5,0c0.2-0.1,0.3-0.2,0.2-0.4
			c0-0.2-0.1-0.3-0.3-0.4h0.1c0-0.1-0.1-0.2-0.3-0.3s-0.3-0.2-0.5-0.3s-0.3-0.1-0.4-0.2c-0.2-0.1-0.5-0.2-1-0.3s-0.8-0.1-1,0
			C33,13.3,33,13.4,33,13.5s0,0.2,0.1,0.4s0.1,0.3,0.1,0.4c0,0.1,0,0.2-0.2,0.4s0,0.4,0,0.5s0.1,0.3,0.4,0.5
			c0.3,0.2,0.4,0.4,0.3,0.6c-0.1,0.2-0.2,0.3-0.5,0.5s-0.4,0.3-0.5,0.4c-0.1,0.2-0.1,0.3,0,0.5s0.2,0.4,0.3,0.5c0,0,0.1,0.1,0,0.1
			c0,0,0,0.1-0.1,0.1s-0.1,0.1-0.2,0.1c0,0-0.1,0.1-0.2,0.1l-0.1,0.1c-0.2,0.1-0.4,0-0.6-0.2c-0.2-0.2-0.3-0.5-0.4-0.8
			c-0.1-0.5-0.3-0.8-0.5-0.9c-0.5-0.2-0.7-0.1-0.9,0c-0.1-0.3-0.5-0.5-1.2-0.8c-0.5-0.2-1.1-0.2-1.6-0.1c0.1,0,0.1-0.2,0-0.4
			c-0.1-0.3-0.3-0.4-0.6-0.4C27,15,27,14.8,27,14.6s0-0.4,0-0.4c0.1-0.3,0.2-0.5,0.4-0.7c0,0,0.1-0.1,0.2-0.3
			c0.1-0.1,0.2-0.3,0.3-0.4c0.1-0.1,0.1-0.2,0-0.2c0.7,0.1,1.2,0,1.5-0.3c0.1-0.1,0.2-0.3,0.3-0.5s0.2-0.4,0.3-0.5
			c0.2-0.1,0.3-0.2,0.4-0.2s0.2,0.1,0.4,0.2c0.2,0.1,0.3,0.1,0.4,0.1c0.3,0,0.4-0.1,0.5-0.3s0-0.4-0.2-0.6c0.2,0,0.3-0.1,0.1-0.5
			c-0.1-0.1-0.2-0.2-0.2-0.3c-0.2-0.1-0.5,0-0.8,0.1c-0.2,0.1-0.1,0.2,0.1,0.2c0,0-0.1,0.1-0.3,0.3S30,10.9,29.8,11
			s-0.3,0.1-0.5-0.1c0,0-0.1-0.2-0.2-0.4c0.2,0,0.1-0.2,0-0.2c-0.2,0-0.3,0.1-0.5,0.4c0.1-0.2,0-0.3-0.3-0.4
			c-0.3-0.1-0.5-0.2-0.7-0.2c0.4-0.2,0.3-0.5-0.2-0.8c-0.1-0.1-0.3-0.1-0.6-0.1c-0.3,0-0.5,0-0.6,0.1S26,9.6,26,9.6
			c0,0.1,0,0.2,0.1,0.2c0.1,0.1,0.2,0.1,0.3,0.2c0.1,0,0.2,0.1,0.3,0.1c0.1,0,0.2,0.1,0.3,0.1c0.3,0.2,0.4,0.3,0.2,0.4
			c0,0-0.1,0.1-0.3,0.1c-0.1,0-0.2,0.1-0.3,0.1c-0.1,0-0.2,0.1-0.2,0.1c-0.1,0.1-0.1,0.2,0,0.4s0,0.3-0.1,0.4
			c-0.1-0.1-0.2-0.3-0.3-0.5c0-0.2,0-0.4-0.1-0.5c0.1,0.2-0.1,0.2-0.7,0.2H25c-0.1,0-0.2,0-0.5,0.1c-0.2,0-0.4,0-0.6,0
			s-0.3-0.1-0.4-0.2c-0.1-0.2-0.1-0.4,0-0.6c0-0.1,0.1-0.1,0.1-0.1c-0.1-0.1-0.2-0.2-0.3-0.3S23.1,9.6,23,9.5
			c-0.9,0.3-1.7,0.7-2.7,1.2c0.1,0,0.2,0,0.4,0c0.1,0,0.2-0.1,0.4-0.2c0.2-0.1,0.3-0.1,0.3-0.2c0.7-0.3,1.1-0.3,1.2-0.2l0.1-0.1
			c0.3,0.3,0.5,0.6,0.6,0.7c-0.1-0.1-0.4-0.1-0.9,0c-0.4,0.1-0.6,0.2-0.7,0.4c0.1,0.2,0.2,0.4,0.1,0.5c-0.1-0.1-0.2-0.2-0.3-0.3
			c-0.1-0.1-0.3-0.2-0.4-0.3s-0.3-0.1-0.4-0.1c-0.3,0-0.5,0-0.7,0c-2.8,1.6-5,3.7-6.8,6.4c0.1,0.1,0.3,0.2,0.4,0.2
			c0.1,0,0.1,0.1,0.1,0.3c0,0.2,0,0.3,0.1,0.3c0,0.1,0.1,0,0.3-0.1c0.2,0.2,0.2,0.3,0.1,0.6c0,0,0.5,0.2,1.3,0.8
			c0.4,0.3,0.6,0.5,0.6,0.6c0.1,0.2,0,0.4-0.3,0.5c0,0-0.1-0.1-0.3-0.3c-0.2-0.1-0.2-0.2-0.3-0.1s-0.1,0.3,0,0.5
			c0.1,0.3,0.2,0.4,0.3,0.4c-0.1,0-0.2,0.2-0.3,0.5s-0.1,0.7-0.1,1.1s0,0.6,0,0.7h0.1c-0.1,0.2,0,0.6,0.2,1s0.4,0.6,0.6,0.6
			c-0.3,0.1-0.1,0.5,0.6,1.3c0.1,0.2,0.2,0.2,0.2,0.3c0.1,0,0.2,0.1,0.4,0.2c0.2,0.1,0.3,0.2,0.4,0.3s0.2,0.2,0.3,0.3
			c0.1,0.1,0.2,0.3,0.3,0.7c0.1,0.3,0.3,0.6,0.4,0.7c0,0.1,0.1,0.3,0.3,0.6c0.2,0.3,0.3,0.5,0.3,0.7c0,0,0,0-0.1,0S19,30,19,30
			c0.1,0.1,0.2,0.3,0.5,0.4c0.2,0.1,0.4,0.3,0.5,0.4c0,0.1,0,0.2,0.1,0.3c0,0.1,0,0.2,0.1,0.3c0,0.1,0.1,0.1,0.2,0.1
			c0-0.4-0.2-1-0.7-1.7c-0.3-0.5-0.5-0.8-0.5-0.9c-0.1-0.1-0.1-0.3-0.2-0.5c0-0.2-0.1-0.4-0.1-0.4s0.1,0,0.2,0s0.2,0.1,0.3,0.1
			c0.1,0,0.2,0.1,0.2,0.1l0.1,0.1c-0.1,0.1,0,0.3,0.1,0.5s0.2,0.4,0.4,0.5s0.3,0.3,0.5,0.6s0.3,0.3,0.4,0.4s0.3,0.3,0.4,0.6
			c0.2,0.3,0.2,0.4,0,0.4c0.2,0,0.4,0.1,0.6,0.3s0.4,0.4,0.5,0.6c0.1,0.2,0.2,0.4,0.2,0.8c0.1,0.4,0.1,0.6,0.1,0.7
			c0,0.1,0.1,0.3,0.3,0.4c0.1,0.1,0.3,0.2,0.4,0.3s0.3,0.1,0.5,0.2c0.2,0.1,0.3,0.2,0.4,0.2s0.3,0.1,0.5,0.3
			c0.3,0.2,0.5,0.3,0.6,0.3c0.2,0.1,0.4,0.1,0.5,0.1s0.3,0,0.4-0.1c0.2,0,0.3-0.1,0.4-0.1c0.3,0,0.6,0.1,0.9,0.4
			c0.3,0.3,0.5,0.5,0.6,0.6c0.7,0.4,1.3,0.5,1.6,0.3c0,0,0,0.1,0,0.2c0,0.1,0.1,0.3,0.2,0.5s0.2,0.3,0.3,0.4
			c0.1,0.1,0.1,0.2,0.2,0.3s0.3,0.3,0.5,0.4c0.3,0.2,0.4,0.3,0.5,0.4c0.1-0.1,0.2-0.2,0.2-0.3c-0.1,0.2,0,0.4,0.2,0.6
			c0.2,0.2,0.4,0.3,0.5,0.3c0.3-0.1,0.4-0.4,0.4-0.9c-0.6,0.3-1.1,0.1-1.5-0.5c0,0,0-0.1-0.1-0.2s-0.1-0.2-0.1-0.3s-0.1-0.2-0.1-0.3
			s0-0.2,0-0.2c0-0.1,0.1-0.1,0.1-0.1c0.2,0,0.3,0,0.3-0.1s0-0.2-0.1-0.4s-0.1-0.3-0.1-0.4c0-0.2-0.1-0.4-0.3-0.6
			c-0.2-0.2-0.3-0.4-0.4-0.4c-0.1,0.2-0.3,0.3-0.5,0.2c-0.2,0-0.4-0.1-0.5-0.3c0,0,0,0.1,0,0.2c0,0.1,0,0.2,0,0.2
			c-0.3,0-0.4,0-0.4,0c0-0.1,0-0.2,0.1-0.5c0-0.3,0.1-0.5,0.1-0.7c0-0.1,0.1-0.2,0.2-0.4s0.2-0.3,0.2-0.4C30,33.2,30,33,30,32.9
			c0-0.1,0-0.2-0.1-0.3s-0.3-0.1-0.5-0.1c-0.4,0-0.6,0.2-0.8,0.6c0,0.1,0,0.2-0.1,0.3c0,0.1-0.1,0.3-0.1,0.3s-0.1,0.1-0.3,0.2
			C28,34,27.7,34,27.4,34c-0.3,0-0.6-0.1-0.7-0.1c-0.3-0.2-0.5-0.4-0.7-0.9c-0.2-0.4-0.3-0.8-0.3-1.1c0-0.2,0-0.5,0.1-0.8
			c0-0.3,0.1-0.6,0.1-0.7c0-0.2,0-0.4-0.2-0.7c0.1,0,0.1-0.1,0.3-0.3c0.1-0.1,0.2-0.3,0.3-0.3H26h0.1h0.1c0,0,0.1-0.1,0.1-0.2
			c0,0-0.1,0-0.1-0.1c-0.1-0.1-0.1-0.1-0.1-0.1c0.1,0.1,0.4,0,0.8,0c0.4-0.1,0.7-0.1,0.8,0c0.3,0.2,0.5,0.2,0.7-0.1
			c0,0,0-0.1-0.1-0.3c0-0.2-0.1-0.3,0-0.4c0.1,0.5,0.4,0.6,0.9,0.3c0.1,0.1,0.2,0.1,0.5,0.1c0.2,0,0.4,0.1,0.5,0.1s0.1,0.1,0.2,0.2
			s0.1,0.1,0.2,0.1h0.1c0.1,0,0.2-0.1,0.3-0.2c0.2,0.3,0.3,0.5,0.4,0.7c0.2,0.8,0.4,1.2,0.6,1.3C31.9,30,32,30,32.1,30
			s0.1-0.1,0.1-0.3c0-0.2,0-0.3,0-0.4s0-0.2,0-0.4v-0.2c0-0.2,0-0.4,0-0.5V28c-0.3-0.1-0.5-0.2-0.5-0.4c-0.1-0.2-0.1-0.4,0-0.5
			c0.1-0.2,0.2-0.4,0.4-0.5c0,0,0.1-0.1,0.2-0.1s0.3-0.1,0.5-0.2s0.3-0.2,0.4-0.2c0.4-0.4,0.6-0.7,0.4-1c0.1,0,0.2-0.1,0.3-0.3
			c0,0-0.1,0-0.1-0.1c-0.1-0.1-0.2-0.1-0.2-0.1c-0.1,0-0.1-0.1-0.1-0.1c0.2-0.1,0.2-0.3,0.1-0.5c0.1-0.1,0.2-0.2,0.2-0.3
			c0-0.2,0.1-0.3,0.2-0.3c0.2,0.2,0.4,0.3,0.6,0.1c0.1-0.2,0.1-0.3,0-0.5c0.1-0.1,0.3-0.2,0.6-0.3c0.3-0.1,0.5-0.2,0.5-0.3
			c0.1,0,0.2,0,0.2-0.1s0-0.2,0-0.4c0-0.2,0-0.3,0.1-0.4s0.2-0.2,0.4-0.3c0.2-0.1,0.3-0.1,0.4-0.1l0.5-0.3c0.1-0.1,0.1-0.1,0-0.1
			c0.4,0,0.7-0.1,0.9-0.3c0.2-0.2,0.1-0.4-0.2-0.6c0.1-0.1,0-0.2-0.1-0.3c-0.1-0.1-0.3-0.1-0.4-0.2c0.1,0,0.2,0,0.3,0
			c0.2,0,0.3,0,0.3,0c0.3-0.2,0.2-0.4-0.2-0.5C37.8,19.5,37.4,19.6,37,19.9z M32.2,45.1c4-0.7,7.3-2.5,10.1-5.4
			c-0.1-0.1-0.2-0.1-0.4-0.1s-0.3-0.1-0.4-0.1c-0.4-0.1-0.6-0.2-0.7-0.2c0-0.1,0-0.3-0.1-0.4c-0.1-0.1-0.1-0.2-0.2-0.3
			c-0.1-0.1-0.2-0.1-0.4-0.2c-0.2-0.1-0.3-0.2-0.3-0.2s-0.1-0.1-0.2-0.2c-0.1-0.1-0.2-0.1-0.2-0.2c0,0-0.1-0.1-0.2-0.1
			s-0.2-0.1-0.3-0.1s-0.2,0-0.3,0h-0.1c-0.1,0-0.1,0-0.2,0.1c-0.1,0-0.1,0.1-0.2,0.1c-0.1,0-0.1,0.1-0.1,0.1V38
			c-0.4-0.3-0.8-0.6-1.1-0.7c-0.1,0-0.2-0.1-0.3-0.2c-0.1-0.1-0.2-0.2-0.3-0.2s-0.2-0.1-0.3,0c-0.1,0-0.2,0.1-0.3,0.2
			c-0.1,0.1-0.2,0.2-0.2,0.4s0,0.3-0.1,0.4c-0.1-0.1-0.1-0.3,0-0.5s0.2-0.4,0.1-0.5c-0.1-0.1-0.2-0.2-0.3-0.1
			c-0.1,0-0.3,0.1-0.4,0.1c-0.1,0.1-0.2,0.1-0.3,0.3c-0.1,0.1-0.2,0.2-0.3,0.2s-0.1,0.1-0.3,0.2c-0.1,0.1-0.2,0.2-0.2,0.2
			c-0.1,0.1-0.1,0.2-0.2,0.4c-0.1,0.2-0.1,0.3-0.1,0.3c0-0.1-0.2-0.1-0.3-0.2c-0.2,0-0.3-0.1-0.3-0.2c0,0.2,0.1,0.5,0.1,1
			S33,40,33,40.2c0.1,0.6,0,1.1-0.4,1.4c-0.5,0.5-0.8,0.9-0.9,1.2c-0.1,0.4,0,0.7,0.4,0.8c0,0.1-0.1,0.3-0.2,0.6s0.1,0.3,0.1,0.4
			C32.2,44.8,32.2,44.9,32.2,45.1z"/>
	</g>
</g>
</svg>
