<?xml version="1.0" encoding="utf-8"?>
<!-- Generator: Adobe Illustrator 17.1.0, SVG Export Plug-In . SVG Version: 6.00 Build 0)  -->
<!DOCTYPE svg PUBLIC "-//W3C//DTD SVG 1.1//EN" "http://www.w3.org/Graphics/SVG/1.1/DTD/svg11.dtd">
<svg version="1.1" id="Layer_1" xmlns="http://www.w3.org/2000/svg" xmlns:xlink="http://www.w3.org/1999/xlink" x="0px" y="0px"
	 viewBox="0 0 12 12" enable-background="new 0 0 12 12" xml:space="preserve">
<g>
	<polygon fill="#FFFFFF" points="4,12 4,8 0,8 0,5 4,5 4,1 7,1 7,5 11,5 11,8 7,8 7,12 	"/>
	<path d="M7,1v4h4v2H7v4H5V7H1V5h4V1H7 M8,0H7H5H4v1v3H1H0v1v2v1h1h3v3v1h1h2h1v-1V8h3h1V7V5V4h-1H8V1V0L8,0z"/>
</g>
</svg>
