<svg height="480pt" viewBox="0 -84 480.19678 480" width="480pt" xmlns="http://www.w3.org/2000/svg"><path d="m158.625 84.496094-23.320312-53.289063 16.394531-2.445312 21.582031 49.320312zm0 0" fill="#ccc"/><path d="m144.019531 32.183594h-9.234375c-7.503906 0-13.007812-5.519532-11.199218-11.199219l1.894531-5.9375c2.222656-4.914063 7.492187-7.695313 12.800781-6.75l37.601562 4.207031c4.167969.050782 7.648438 3.1875 8.136719 7.328125-.421875 3.960938-3.648437 7.039063-7.625 7.28125zm0 0" fill="#603813"/><path d="m396.019531 304.183594c-46.394531 0-84-37.609375-84-84s37.605469-84 84-84c46.390625 0 84 37.609375 84 84-.054687 46.371094-37.632812 83.949218-84 84zm0-152c-37.554687 0-68 30.445312-68 68 0 37.554687 30.445313 68 68 68 37.554688 0 68-30.445313 68-68-.046875-37.535156-30.464843-67.957032-68-68zm0 0" fill="#333"/><path d="m84.019531 304.183594c-46.394531 0-83.9999998-37.609375-83.9999998-84s37.6054688-84 83.9999998-84c46.390625 0 84 37.609375 84 84-.054687 46.371094-37.632812 83.949218-84 84zm0-152c-37.554687 0-68 30.445312-68 68 0 37.554687 30.445313 68 68 68 37.554688 0 68-30.445313 68-68-.046875-37.535156-30.464843-67.957032-68-68zm0 0" fill="#333"/><path d="m.0195312 296.183594h479.9999998v16h-479.9999998zm0 0" fill="#29485a"/><path d="m208.019531 272.183594h-8c-4.417969 0-8-3.582032-8-8 0-4.417969 3.582031-8 8-8h8c4.417969 0 8 3.582031 8 8 0 4.417968-3.582031 8-8 8zm0 0"/><path d="m208.019531 276.183594h-8c-6.628906 0-12-5.371094-12-12 0-6.625 5.371094-12 12-12h8c6.625 0 12 5.375 12 12 0 6.628906-5.375 12-12 12zm-8-16c-2.210937 0-4 1.792968-4 4 0 2.210937 1.789063 4 4 4h8c2.207031 0 4-1.789063 4-4 0-2.207032-1.792969-4-4-4zm0 0" fill="#333"/><path d="m248.019531 200.183594h-8c-4.417969 0-8-3.582032-8-8 0-4.417969 3.582031-8 8-8h8c4.417969 0 8 3.582031 8 8 0 4.417968-3.582031 8-8 8zm0 0"/><path d="m248.019531 204.183594h-8c-6.628906 0-12-5.371094-12-12 0-6.625 5.371094-12 12-12h8c6.625 0 12 5.375 12 12 0 6.628906-5.375 12-12 12zm-8-16c-2.210937 0-4 1.792968-4 4 0 2.210937 1.789063 4 4 4h8c2.207031 0 4-1.789063 4-4 0-2.207032-1.792969-4-4-4zm0 0" fill="#333"/><path d="m394.027344 88.183594h-10.007813v-16h10.007813c2.992187.015625 5.707031-1.742188 6.921875-4.476563 1.210937-2.734375.695312-5.929687-1.324219-8.140625l-.863281-.941406c-1.429688-1.539062-3.441407-2.410156-5.542969-2.402344h-25.199219v-16.039062h25.160157c6.601562.003906 12.902343 2.78125 17.359374 7.65625l.863282.9375c6.289062 6.882812 7.917968 16.832031 4.15625 25.367187-3.761719 8.53125-12.207032 14.039063-21.53125 14.039063zm0 0" fill="#603813"/><path d="m339.539062 81.289062-11.03125-30.402343c-.878906-2.445313-.515624-5.167969.980469-7.296875 1.492188-2.128906 3.929688-3.398438 6.53125-3.40625h32v16h-20.578125l8.527344 23.488281zm0 0" fill="#ccc"/><path d="m368.816406 114.96875-10.679687-29.394531-2.140625-5.878907-16.417969 1.601563-158.558594 14.398437-7.714843-17.597656-14.65625 6.398438 8.097656 18.496094-92.976563 116.191406c-1.878906 2.34375-2.292969 5.539062-1.0625 8.28125 1.226563 2.742187 3.886719 4.5625 6.886719 4.71875l152 8h.425781c1.9375.003906 3.808594-.703125 5.261719-1.984375l120.855469-105.78125 34.402343 94.503906 15.023438-5.472656zm-194.839844 4.574219 45.523438 104-123.480469-6.558594zm60.992188 99.425781-47.199219-107.816406 157.433594-14.3125 2.03125 5.601562 5.039063 13.871094zm0 0" fill="#f8cf26"/><path d="m232.019531 208.183594c-13.257812 0-24 10.746094-24 24 .011719 6.671875 2.742188 13.050781 7.558594 17.664062 4.226563 4.054688 9.847656 6.320313 15.703125 6.335938h1.144531c6.386719-.003906 12.496094-2.589844 16.941407-7.175782 4.445312-4.582031 6.84375-10.769531 6.652343-17.152343-.332031-13.0625-10.9375-23.519531-24-23.671875zm0 0" fill="#333"/><path d="m480.019531 296.183594h-48.457031c39.019531-18.070313 58.054688-62.71875 44.082031-103.382813-13.976562-40.667969-56.4375-64.179687-98.320312-54.449219l-29.882813-82.167968h45.738282c2.101562-.007813 4.109374.859375 5.542968 2.402344l.863282.941406c2.023437 2.207031 2.546874 5.40625 1.332031 8.144531-1.214844 2.734375-3.9375 4.492187-6.933594 4.472656h-9.964844v16h10.007813c9.324218 0 17.769531-5.507812 21.53125-14.039062 3.761718-8.535157 2.132812-18.484375-4.15625-25.371094l-.863282-.933594c-4.464843-4.859375-10.761718-7.621093-17.359374-7.617187h-57.160157c-2.609375.003906-5.054687 1.277344-6.550781 3.414062-1.496094 2.136719-1.855469 4.871094-.960938 7.324219l11.039063 30.398437-158.542969 14.398438-25.082031-57.277344 21.710937-3.402344c7.898438-.808593 14.019532-7.269531 14.402344-15.199218-.378906-8.269532-6.980468-14.894532-15.25-15.304688l-37.597656-4.199218c-9.113281-1.429688-17.988281 3.675781-21.328125 12.273437l-1.890625 5.925781c-1.496094 4.714844-.625 9.863282 2.335938 13.824219 3.941406 5.074219 10.058593 7.980469 16.480468 7.824219h4.433594l27.496094 62.808594-37.304688 46.625c-26.34375-17-59.96875-17.898438-87.179687-2.324219-27.210938 15.574219-43.46875 45.019531-42.1562502 76.34375 1.3125002 31.328125 19.9804692 59.304687 48.3984372 72.546875h-48.4531248v16h479.9999998zm-84-144c34.847657-.117188 64.179688 26.050781 68.03125 60.683594 3.851563 34.636718-19.019531 66.605468-53.039062 74.148437-34.023438 7.542969-68.261719-11.769531-79.40625-44.785156-11.148438-33.019531 4.382812-69.128907 36.011719-83.75l24.890624 68.441406 15.023438-5.472656-24.703125-67.953125c4.34375-.867188 8.761719-1.308594 13.191406-1.3125zm-50.824219-55.34375 7.070313 19.449218-108.582031 95.046876c-3.554688-2.039063-7.570313-3.125-11.664063-3.152344-.585937 0-1.128906.128906-1.695312.167968l-42.5625-97.199218zm-109.257812 142.167968c-.304688.214844-.625.40625-.960938.578126.335938-.171876.65625-.363282.960938-.578126zm-104.648438-215.625h-.0625l1.878907-5.886718c1.167969-1.066406 2.761719-1.535156 4.320312-1.273438l33.121094 3.707032-27.152344 4.253906h-8.609375c-1.203125-.050782-2.386718-.320313-3.496094-.800782zm42.6875 96.160157 41.671876 95.199219c-2.492188 2.316406-4.46875 5.136718-5.789063 8.273437l-41.839844-2.214844c0-.207031 0-.410156 0-.617187-.007812-22.929688-9.421875-44.851563-26.042969-60.648438zm-21.957031 100.417969-56-2.976563 36-44.976563c12.769531 12.695313 19.964844 29.945313 20 47.953126zm-136 .222656c-.054687-24.589844 13.203125-47.285156 34.648438-59.320313 21.445312-12.03125 47.722656-11.519531 68.6875 1.335938l-45.601563 56.984375c-1.882812 2.34375-2.292968 5.546875-1.058594 8.289062 1.230469 2.742188 3.894532 4.5625 6.898438 4.710938l70.519531 3.703125c-8.078125 33.429687-39.847656 55.5625-74.003906 51.5625-34.160156-4-59.953125-32.875-60.089844-67.265625zm150.34375 16.550781 42.757813 2.257813c3.367187 11.421874 14.617187 18.632812 26.398437 16.921874 11.785157-1.710937 20.519531-11.824218 20.5-23.730468-.007812-3.035156-.601562-6.042969-1.746093-8.855469l103.863281-90.910156 4 10.964843c-30.152344 13.253907-49.757813 42.929688-50.113281 75.863282-.359376 32.9375 18.59375 63.03125 48.449218 76.9375h-240.910156c24.125-11.296875 41.480469-33.34375 46.800781-59.449219zm0 0"/><path d="m208.019531 256.183594h-8c-4.417969 0-8 3.582031-8 8 0 4.417968 3.582031 8 8 8h8c4.417969 0 8-3.582032 8-8 0-4.417969-3.582031-8-8-8zm0 0"/><path d="m240.019531 200.183594h8c4.417969 0 8-3.582032 8-8 0-4.417969-3.582031-8-8-8h-8c-4.417969 0-8 3.582031-8 8 0 4.417968 3.582031 8 8 8zm0 0"/></svg>