<svg id="Capa_1" enable-background="new 0 0 512 512" height="512" viewBox="0 0 512 512" width="512" xmlns="http://www.w3.org/2000/svg"><path d="m216 142h80v200h-80z" fill="#ffd89e"/><g fill="#ffc15a"><path d="m216 342v-200h-80v240h60v-40z"/><path d="m376 142h-80v200h20v40h60z"/><path d="m61 447h70v40h-70z" transform="matrix(0 1 -1 0 563 371)"/></g><path d="m96 402h120v80h-120z" fill="#ffd89e" transform="matrix(0 1 -1 0 598 286)"/><path d="m196 422h120v80h-120z" fill="#ffc15a"/><path d="m236 2h40v80h-40z" fill="#e1e3e9" transform="matrix(0 1 -1 0 298 -214)"/><path d="m216 22h80v160h-80z" fill="#ffd89e" transform="matrix(0 1 -1 0 358 -154)"/><path d="m381 446.998h70v40h-70z" fill="#ffc15a" transform="matrix(0 -1 1 0 -50.998 882.998)"/><path d="m296 401.998h120v80h-120z" fill="#ffd89e" transform="matrix(0 -1 1 0 -85.998 797.998)"/><path d="m216 322h80v120h-80z" fill="#ffd89e" transform="matrix(0 1 -1 0 638 126)"/><path d="m471 492h-25v-60.002c0-5.523-4.478-10-10-10h-30v-40c0-5.523-4.478-10-10-10h-10v-229.998c0-5.523-4.478-10-10-10h-30v-70c0-5.523-4.478-10-10-10h-30v-30c0-5.523-4.478-10-10-10h-30v-2c0-5.523-4.478-10-10-10s-10 4.477-10 10v2h-30c-5.522 0-10 4.477-10 10v30h-30c-5.522 0-10 4.477-10 10v70h-30c-5.522 0-10 4.477-10 10v230h-10c-5.522 0-10 4.477-10 10v40h-30c-5.522 0-10 4.477-10 10v60h-25c-5.522 0-10 4.477-10 10s4.478 10 10 10h430c5.522 0 10-4.477 10-10s-4.478-10-10-10zm-265-140 100-.002v60.002h-100zm180 39.998v100h-60v-99.998zm-100-59.998h-60v-180h60zm140 109.998v50h-20v-50zm-60-289.998v219.998h-40v-29.998c0-5.523-4.478-10-10-10h-10v-180zm-140-120h60v20h-60zm-40 40h140v60h-140zm-40 80h60v180h-10c-5.522 0-10 4.477-10 10v30h-40zm-60 290h20v50h-20zm40-50h60v100h-60zm80 79.998h10c5.51 0 10-4.48 10-10 0-5.51-4.49-10-10-10h-10v-19.998h100v19.998h-10c-5.51 0-10 4.49-10 10 0 5.52 4.49 10 10 10h10v20.002h-100z"/><path d="m256 451.998c-5.51 0-10 4.49-10 10 0 5.52 4.49 10 10 10s10-4.48 10-10c0-5.51-4.49-10-10-10z"/><circle cx="236" cy="381.998" r="10"/><circle cx="276" cy="381.998" r="10"/><circle cx="156" cy="421.998" r="10"/><circle cx="156" cy="461.998" r="10"/><circle cx="356" cy="421.998" r="10"/><circle cx="356" cy="461.998" r="10"/><circle cx="256" cy="301.998" r="10"/><circle cx="256" cy="261.998" r="10"/><circle cx="256" cy="181.998" r="10"/><circle cx="256" cy="221.998" r="10"/><circle cx="176" cy="301.998" r="10"/><circle cx="176" cy="221.998" r="10"/><circle cx="176" cy="181.998" r="10"/><circle cx="176" cy="261.998" r="10"/><path d="m336 271.998c5.52 0 10-4.47 10-10 0-5.52-4.48-10-10-10-5.521 0-10 4.48-10 10 0 5.53 4.479 10 10 10z"/><circle cx="336" cy="301.998" r="10"/><circle cx="336" cy="221.998" r="10"/><path d="m336 191.998c5.52 0 10-4.47 10-10 0-5.52-4.48-10-10-10-5.521 0-10 4.48-10 10 0 5.53 4.479 10 10 10z"/><circle cx="216" cy="101.998" r="10"/><circle cx="256" cy="101.998" r="10"/><circle cx="296" cy="101.998" r="10"/></svg>