<svg id="Capa_1" enable-background="new 0 0 512 512" height="512" viewBox="0 0 512 512" width="512" xmlns="http://www.w3.org/2000/svg"><path d="m256 71-50 30v130c0-27.614 22.386-50 50-50 27.614 0 50 22.386 50 50v-130z" fill="#ffd89e"/><path d="m502 321-196-40v-107l196 40z" fill="#f9f9f9"/><path d="m462 263v50h-40v-50c0-11.046 8.954-20 20-20 11.046 0 20 8.954 20 20z" fill="#98a1b3"/><path d="m382 247v50h-40v-50c0-11.046 8.954-20 20-20 11.046 0 20 8.954 20 20z" fill="#98a1b3"/><g fill="#ffd89e"><path d="m502 174v40l-40-8.163v-40z"/><path d="m462 165.837v40l-40-8.164v-40z"/><path d="m306 134 36 7.347v40l-36-7.347z"/><path d="m382 149.51v40l-40-8.163v-40z"/><path d="m422 157.673v40l-40-8.163v-40z"/></g><path d="m10 321 196-40v-107l-196 40z" fill="#f9f9f9"/><path d="m50 263v50h40v-50c0-11.046-8.954-20-20-20-11.046 0-20 8.954-20 20z" fill="#98a1b3"/><path d="m130 247v50h40v-50c0-11.046-8.954-20-20-20-11.046 0-20 8.954-20 20z" fill="#98a1b3"/><path d="m206 281h100v40h-100z" fill="#f9f9f9"/><path d="m10 361 196-40v-40l-196 40z" fill="#f9f9f9"/><path d="m502 361-196-40v-40l196 40z" fill="#f9f9f9"/><path d="m10 361v80h116c0-38.66 69.249-70 130-70s130 31.34 130 70h116v-80l-196-40h-100z" fill="#dff6fc"/><path d="m10 174v40l40-8.163v-40z" fill="#ffd89e"/><path d="m50 165.837v40l40-8.164v-40z" fill="#ffd89e"/><path d="m206 134-36 7.347v40l36-7.347z" fill="#ffd89e"/><path d="m130 149.51v40l40-8.163v-40z" fill="#ffd89e"/><path d="m90 157.673v40l40-8.163v-40z" fill="#ffd89e"/><path d="m254.56 134.87c1.8 0 3.58-.49 5.13-1.431 4.73-2.83 6.27-8.989 3.43-13.72-1.79-2.99-5.08-4.85-8.58-4.85-1.8 0-3.58.489-5.14 1.42-4.72 2.84-6.26 8.99-3.43 13.72 1.8 3.001 5.09 4.861 8.59 4.861z"/><path d="m462 391h-10c-5.51 0-10 4.49-10 10s4.49 10 10 10h10c5.51 0 10-4.49 10-10s-4.49-10-10-10z"/><path d="m60 391h-10c-5.51 0-10 4.49-10 10s4.49 10 10 10h10c5.51 0 10-4.49 10-10s-4.49-10-10-10z"/><path d="m504 164.202-188-38.367v-24.835c0-3.513-1.843-6.768-4.855-8.575l-50-30c-3.167-1.9-7.123-1.9-10.29 0l-50 30c-3.012 1.808-4.855 5.063-4.855 8.575v24.835l-188 38.367c-4.656.95-8 5.046-8 9.798v267c0 5.522 4.477 10 10 10h116c5.523 0 10-4.478 10-10 0-29.72 60.561-60 120-60s120 30.28 120 60c0 5.522 4.477 10 10 10h116c5.523 0 10-4.478 10-10v-267c0-4.752-3.344-8.847-8-9.798zm-132 120.062-20-4.082v-33.182c0-5.514 4.486-10 10-10s10 4.486 10 10zm80 16.326-20-4.082v-33.508c0-5.514 4.486-10 10-10s10 4.486 10 10zm40-78.425v86.588l-20-4.082v-41.671c0-16.542-13.458-30-30-30s-30 13.458-30 30v29.427l-20-4.082v-41.345c0-16.542-13.458-30-30-30s-30 13.458-30 30v29.1l-16-3.265v-86.588zm-196 48.835h-80v-40c0-22.056 17.944-40 40-40s40 17.944 40 40zm-216 25.509-20 4.082v-37.591c0-5.514 4.486-10 10-10s10 4.486 10 10zm80-16.327-20 4.082v-37.264c0-5.514 4.486-10 10-10s10 4.486 10 10zm36-93.935v86.588l-16 3.265v-29.1c0-16.542-13.458-30-30-30s-30 13.458-30 30v41.345l-20 4.082v-29.427c0-16.542-13.458-30-30-30s-30 13.458-30 30v41.671l-20 4.082v-86.588zm-176 162.506v-19.588l176-35.918v19.588zm196-57.753h80v20h-80zm100 21.835v-19.588l176 35.918v19.588zm176-111.082-20-4.081v-19.588l20 4.081zm-40-8.163-20-4.082v-19.587l20 4.081zm-40-8.163-20-4.082v-19.588l20 4.082zm-40-8.164-20-4.081v-19.588l20 4.081zm-40-27.751v19.588l-16-3.265v-19.588zm-116-42.85 40-24c13.334 8.001 26.669 16 40.001 24.005v29.664c-4.967-3.787-12.308-3.472-15.72 2.228-2.8 4.677-1.245 10.936 3.43 13.721l12.29 7.385v26.65c-10.624-9.519-24.648-15.315-40.001-15.315s-29.377 5.796-40 15.315v-26.653s9.379-5.63 9.4-5.643c4.638-2.784 6.199-9.09 3.43-13.72-1.83-3.04-5.04-4.85-8.59-4.85-1.467 0-2.913.341-4.24.965zm-20 59.173-16 3.265v-19.588l16-3.265zm-36 7.347-20 4.081v-19.588l20-4.081zm-40 8.163-19 3.878-1 .204v-19.588l20-4.082zm-40 8.164-20 4.082v-19.588l20-4.081zm-60-7.344 20-4.081v19.588l-20 4.081zm374.811 248.835c-9.748-40.679-77.633-70-138.811-70s-129.063 29.321-138.811 70h-97.189v-61.835l187.009-38.165h97.981l187.01 38.165v61.835z"/></svg>